<?xml version="1.0" encoding="UTF-8"?><svg id="a" xmlns="http://www.w3.org/2000/svg" viewBox="0 0 612 792"><defs><style>.c{fill:#fff;}</style></defs><g id="b"><path class="c" d="m138.76,212.9c1.67-.31,3.35-.55,5.04-.55,109.07,0,218.14,0,327.21,0,.41.16.81.39,1.23.46,10.38,1.67,17.39,9.9,17.39,20.5,0,108.49,0,216.98-.02,325.48,0,1.76-.22,3.57-.64,5.29-2.3,9.39-10.3,15.55-20.13,15.55-30.17.01-60.34,0-90.51,0-.67,0-1.34,0-1.99,0v-142.14h2.4c14.1,0,28.19,0,42.29,0,4.2,0,2.2,0,4.37-9.37,2.66-11.55,3.95-23.37,4.49-35.21.51-11.08,2.78-11.09-2.89-11.09-16.14,0-32.27,0-48.41,0h-2.38v-2.34c0-10.84-.05-21.69.03-32.53.03-3.18.28-6.37.74-9.52,1.3-8.91,6.27-14.43,15.1-16.35,3.83-.83,7.83-1.09,11.76-1.16,8.8-.17,17.6-.05,26.4-.06.81,0,1.62-.09,2.62-.15v-2.04c0-3.06,0-6.12,0-9.18,0-12.05-.03-24.11.04-36.16.01-1.85-.28-2.91-2.43-2.74-1.06.08-2.15-.24-3.23-.31-7.44-.45-14.88-1.04-22.33-1.29-11.91-.41-23.82-.78-35.57,2.03-19.05,4.56-33.63,14.94-42.63,32.53-5.58,10.91-8.06,22.66-8.17,34.88-.13,14.09-.08,28.19-.11,42.29,0,.67-.06,1.34-.1,2.11-.98,0-1.74,0-2.5,0-14.41,0-28.83.03-43.24-.04-1.74,0-2.27.47-2.26,2.25.07,17.09.07,34.19,0,51.28,0,1.78.51,2.23,2.25,2.22,14.54-.07,29.08-.04,43.63-.04.68,0,1.36,0,2.13,0,.05.7.11,1.2.11,1.69,0,45.99,0,91.97,0,137.96,0,2.48,0,2.48-2.52,2.48-43.56,0-87.13,0-130.69,0-14.1,0-28.19.03-42.29-.01-9.61-.03-17.59-6.38-19.85-15.7-.24-.97-.49-1.95-.73-2.92,0-109.97,0-219.94,0-329.9.17-.47.42-.93.48-1.42,1.16-8.27,7.82-15.31,15.89-16.79,0,0,.02,0,.02,0Z"/></g></svg>