<?xml version="1.0" encoding="UTF-8"?><svg id="a" xmlns="http://www.w3.org/2000/svg" viewBox="0 0 612 792"><defs><style>.b{fill:#fff;}</style></defs><path class="b" d="m106.72,493.22c0-64.83,0-129.66,0-194.49.65-4.07,1.08-8.19,1.98-12.21,10.14-45.14,37.48-74.06,82.07-86.45,5.81-1.61,11.9-2.2,17.87-3.26,64.83,0,129.66,0,194.49,0,1.26.23,2.51.55,3.78.69,10.89,1.2,21.55,3.61,31.42,8.28,42.79,20.23,65.85,54.1,66.52,101.48.83,59.11.24,118.25.18,177.37-.03,22.91-6.19,44.14-19.51,62.82-22.57,31.66-53.65,47.54-92.53,47.64-58.09.15-116.17.11-174.26-.05-7.48-.02-15.13-.42-22.4-2.02-45.1-9.96-73.95-37.38-86.33-81.9-1.62-5.82-2.2-11.93-3.27-17.9Zm363.01-97.19c0-28.78.02-57.56-.01-86.34,0-9.11-.91-18.11-3.99-26.77-11.25-31.67-38.53-50.75-72.97-50.79-57.95-.07-115.89-.18-173.84.16-8.67.05-17.74,1.24-25.93,3.99-31.85,10.69-50.89,38.3-50.94,72.7-.08,57.95-.04,115.89,0,173.84,0,8.98,1,17.83,4.05,26.36,11.25,31.38,38.27,50.5,72.31,50.59,58.34.15,116.67.11,175.01,0,26.11-.05,47.18-10.51,62.59-31.72,9.79-13.47,13.75-28.8,13.73-45.31-.04-28.91-.01-57.82,0-86.73Z"/><path class="b" d="m408.53,396.02c-.07,56.43-46.51,102.79-102.8,102.6-56.51-.19-102.81-46.66-102.5-102.89.31-56.44,46.3-102.34,102.6-102.41,56.35-.06,102.76,46.35,102.7,102.7Zm-102.72,67.19c37,.11,67.21-30.03,67.31-67.17.1-37.01-30.03-67.21-67.17-67.31-37.02-.1-67.21,30.02-67.31,67.17-.1,37.01,30.03,67.21,67.16,67.31Z"/><path class="b" d="m413.41,263.52c14.25.41,25.77,12.3,25.34,26.15-.46,14.6-12.42,25.9-26.88,25.41-13.9-.47-25.35-12.48-24.95-26.18.41-14.42,12.28-25.8,26.49-25.39Z"/></svg>