<?xml version="1.0" encoding="UTF-8"?><svg id="a" xmlns="http://www.w3.org/2000/svg" viewBox="0 0 612 792"><defs><style>.c{fill:#fff;}</style></defs><g id="b"><g><path class="c" d="m50,268c.39-2.1.85-4.2,1.16-6.31,1.67-11.63,6.68-21.44,15.31-29.53,10.08-9.45,19.34-19.85,29.97-28.62,21.12-17.44,41.26-18.27,62.7-1.39,21.65,17.04,37.66,38.97,47.96,64.7,7.49,18.7,2.95,35.26-10.22,49.82-5.36,5.93-10.74,11.9-16.61,17.3-8.12,7.47-10.5,16.5-6.55,26.27,4.15,10.25,8.98,20.45,15.06,29.65,15.96,24.16,35.99,44.98,56.44,65.33,21.28,21.17,43.18,41.66,68.14,58.56,10.52,7.12,21.42,13.47,34.21,15.72,8.02,1.42,14.71-.76,20.43-6.6,5.83-5.95,11.83-11.74,17.89-17.45,15.27-14.39,32.84-18.89,52.41-10.46,26.1,11.25,48.79,27.4,65.76,50.5,12.28,16.72,12.51,34.92,1.08,52.17-4.57,6.9-10.03,13.29-15.61,19.42-6.05,6.64-12.93,12.53-19.08,19.09-9.53,10.16-21.65,13.91-34.97,14.78-27.05,1.76-52.54-5.16-77.37-14.76-52.06-20.12-97.52-50.95-139.46-87.27-47.53-41.17-89.04-87.61-121.96-141.36-19.3-31.52-35.11-64.62-42.99-101.02-1.61-7.43-2.48-15.02-3.69-22.54,0-5.33,0-10.67,0-16Z"/><path class="c" d="m562,408c-.4,3.1-.88,6.19-1.18,9.3-1.62,16.83-12.26,27.75-27.11,27.75-16.04,0-28.28-12.99-26.14-29.81,5.56-43.74-8.54-81.87-32.63-117-25.39-37.02-57.74-66.62-98.13-86.82-24.35-12.18-50.05-18.96-77.54-17.45-4.98.27-9.96,1.04-14.93,1.01-14.69-.1-24.99-9.21-26.6-23.17-1.58-13.72,6.55-25.49,20.65-28.71,14.42-3.29,29.15-3.14,43.76-1.66,57.65,5.85,105.82,31.87,147.92,70.4,29.42,26.92,53.67,57.81,70.55,94.14,10.95,23.57,18.11,48.25,20.45,74.22.15,1.61.61,3.19.93,4.79v23Z"/><path class="c" d="m313.19,238.86c6.44,1.6,16.84,3.37,26.67,6.76,57.88,19.99,97.01,59.07,117.04,116.95,3.08,8.91,5.06,18.3,6.61,27.62,2.29,13.69-6.97,26.84-20.12,29.77-14.19,3.16-27.41-4.43-31.53-18.47-2.72-9.24-3.98-19.02-7.57-27.88-17.29-42.73-48.02-70.26-93.46-80.53-3.57-.81-7.2-1.44-10.66-2.58-12.74-4.2-20.21-16.7-17.99-29.8,2.21-13,12.87-21.58,31.01-21.84Z"/></g></g></svg>