<?xml version="1.0" standalone="no"?>
<!DOCTYPE svg PUBLIC "-//W3C//DTD SVG 20010904//EN"
 "http://www.w3.org/TR/2001/REC-SVG-20010904/DTD/svg10.dtd">
<svg version="1.0" xmlns="http://www.w3.org/2000/svg"
 width="792.000000pt" height="792.000000pt" viewBox="0 0 792.000000 792.000000"
 preserveAspectRatio="xMidYMid meet">
<metadata>
Created by potrace 1.14, written by Peter Selinger 2001-2017
</metadata>
<g transform="translate(0.000000,792.000000) scale(0.100000,-0.100000)"
fill="#000000" stroke="none">
<path d="M2255 7240 c-80 -22 -116 -42 -168 -93 -75 -73 -107 -164 -101 -289
4 -85 5 -87 27 -153 23 -67 77 -139 130 -172 85 -55 126 -61 366 -63 122 0
221 1 221 3 0 3 -7 21 -15 41 -21 49 -20 340 0 380 8 14 13 27 12 27 -1 1 -64
3 -140 4 l-137 2 17 -26 c15 -22 18 -51 19 -198 0 -186 2 -178 -51 -173 -50 4
-94 22 -123 50 -60 57 -81 122 -88 275 -10 206 42 344 131 346 62 2 99 -27 97
-77 -1 -28 4 -36 28 -49 85 -44 201 8 235 105 20 57 12 72 -34 63 -45 -9 -86
-8 -176 1 -130 14 -189 13 -250 -4z"/>
<path d="M2826 7215 c12 -29 14 -95 14 -357 -1 -177 -5 -327 -9 -333 -5 -5
-11 -20 -14 -32 l-5 -23 138 0 138 0 -12 35 c-8 21 -12 90 -12 177 l1 141 27
9 c65 22 114 -40 143 -180 32 -156 63 -198 154 -209 59 -7 144 19 166 50 19
27 19 37 1 37 -20 0 -39 34 -65 115 -26 82 -76 163 -124 199 -18 14 -57 31
-86 38 -59 13 -52 22 27 33 59 8 141 36 178 60 95 62 78 202 -31 255 -38 19
-62 20 -343 20 l-301 0 15 -35z m437 -40 c28 -12 45 -55 36 -89 -12 -42 -53
-81 -146 -137 -45 -27 -84 -49 -88 -49 -3 0 -5 65 -5 144 l0 145 48 3 c52 3
127 -5 155 -17z"/>
<path d="M3927 7243 c-5 -8 -49 -141 -53 -158 -1 -5 -18 -55 -37 -110 -19 -55
-34 -104 -34 -108 -1 -4 -6 -20 -11 -35 -6 -15 -29 -87 -52 -160 -30 -96 -49
-142 -72 -167 l-30 -35 96 0 c53 0 96 2 96 5 0 3 -9 15 -19 26 -10 11 -21 34
-23 49 -5 32 15 89 32 91 37 5 60 3 99 -7 41 -10 80 -7 138 11 19 6 23 2 33
-35 11 -39 8 -109 -5 -130 -3 -5 27 -10 67 -12 98 -4 236 5 221 15 -23 15 -44
72 -108 292 -26 88 -55 187 -66 220 -10 33 -31 103 -46 155 l-29 95 -96 3
c-53 1 -98 -1 -101 -5z m68 -299 c58 -200 56 -193 45 -215 -10 -18 -40 -19
-120 -4 -40 8 -45 8 -81 0 l-25 -7 57 172 c32 95 60 174 63 178 3 3 6 14 6 25
0 37 10 11 55 -149z"/>
<path d="M4470 7240 c0 -6 8 -22 17 -37 15 -22 17 -61 18 -317 1 -276 -1 -308
-29 -393 -7 -22 -5 -23 58 -22 48 1 66 5 66 15 0 7 -4 15 -9 18 -19 12 -24 80
-26 304 -1 193 1 230 12 216 7 -10 13 -22 13 -27 0 -16 65 -91 190 -218 102
-104 125 -133 166 -215 l48 -95 45 3 46 3 0 340 c0 304 2 344 18 380 10 22 18
42 18 45 -1 5 -131 10 -131 5 0 -1 7 -20 16 -41 13 -30 17 -75 18 -197 1 -87
-2 -161 -6 -163 -4 -3 -8 0 -8 6 0 20 -59 89 -165 195 -69 69 -108 116 -124
153 l-24 52 -114 0 c-71 0 -113 -4 -113 -10z"/>
<path d="M5187 7209 c11 -34 14 -102 14 -329 0 -295 -2 -325 -21 -374 -6 -16
-9 -31 -6 -33 6 -6 445 -4 481 3 116 20 230 145 270 295 44 165 -46 370 -197
451 -41 22 -55 23 -300 26 l-256 3 15 -42z m381 -33 c82 -42 123 -163 118
-341 -4 -118 -29 -196 -83 -256 -35 -39 -61 -49 -142 -53 l-41 -2 0 336 0 337
59 -3 c32 -1 72 -9 89 -18z"/>
<path d="M2051 6290 l-33 -5 0 -2420 c0 -1848 3 -2419 12 -2417 20 5 3881 3
3889 -2 4 -3 7 1087 7 2422 l0 2427 -1921 0 c-1056 0 -1935 -2 -1954 -5z
m3829 -26 c0 -7 -134 -176 -265 -335 -38 -47 -81 -100 -95 -118 -14 -18 -30
-38 -35 -44 -6 -7 -114 -140 -239 -297 -126 -157 -241 -299 -255 -316 -14 -17
-33 -40 -41 -50 -8 -10 -90 -111 -181 -224 -91 -113 -225 -279 -298 -370 -73
-91 -141 -175 -151 -187 -18 -21 -23 -21 -349 -21 l-330 1 -23 26 c-13 14 -45
55 -73 89 -27 35 -75 94 -105 131 -31 36 -69 84 -85 106 -17 22 -35 45 -41 50
-6 6 -55 66 -110 135 -54 69 -103 130 -109 136 -5 7 -17 20 -25 31 -60 76 -95
119 -100 123 -3 3 -86 106 -185 230 -98 124 -182 227 -185 230 -3 3 -80 97
-170 210 -91 113 -170 212 -177 220 -94 114 -193 240 -193 244 0 3 860 6 1910
6 1051 0 1910 -3 1910 -6z m-3800 -64 c3 -3 21 -25 40 -50 19 -25 37 -47 40
-50 3 -3 53 -63 110 -135 58 -71 110 -137 117 -145 7 -8 76 -94 153 -190 78
-96 149 -184 158 -195 9 -11 62 -77 116 -145 55 -69 113 -141 130 -161 17 -20
38 -44 46 -55 40 -51 296 -370 300 -374 4 -4 51 -63 95 -118 5 -7 15 -18 21
-25 6 -7 57 -70 114 -141 l104 -130 1 -410 c1 -226 2 -417 3 -425 1 -8 10 -11
22 -8 11 3 23 1 26 -4 3 -5 -15 -9 -40 -9 -25 0 -46 -3 -46 -7 0 -5 -14 -24
-30 -43 -37 -43 -37 -49 -3 -45 47 5 55 -4 34 -34 -16 -22 -26 -26 -63 -25
-25 1 -49 -1 -54 -5 -16 -11 -84 -99 -84 -109 0 -5 23 -7 50 -6 28 2 50 0 50
-4 0 -4 -15 -30 -34 -58 l-34 -50 -66 1 -66 2 -72 -91 c-40 -50 -78 -97 -85
-104 -23 -24 -4 -32 72 -32 l75 0 -30 -47 c-16 -27 -49 -77 -72 -113 l-43 -65
-95 -1 c-52 -1 -100 -2 -107 -3 -6 0 -35 -31 -65 -69 -29 -37 -58 -73 -65 -80
-7 -7 -34 -41 -60 -75 -26 -34 -53 -68 -60 -75 -7 -7 -13 -17 -13 -20 0 -4 56
-7 125 -6 69 0 125 -2 125 -5 -1 -3 -32 -53 -70 -111 -38 -58 -91 -141 -119
-185 -27 -44 -63 -98 -79 -120 l-29 -40 -166 1 -166 1 -23 -29 c-13 -15 -33
-40 -46 -55 -12 -16 -57 -72 -100 -125 l-77 -96 -5 116 c-3 64 -4 1134 -2
2377 2 2123 3 2258 19 2235 9 -14 19 -27 23 -30z m2810 -1624 c0 -2 -8 -10
-17 -17 -16 -13 -17 -12 -4 4 13 16 21 21 21 13z m-40 -16 c0 -5 -2 -10 -4
-10 -3 0 -8 5 -11 10 -3 6 -1 10 4 10 6 0 11 -4 11 -10z m-30 -14 c0 -2 -8
-10 -17 -17 -16 -13 -17 -12 -4 4 13 16 21 21 21 13z m26 -31 c1 -8 -1 -17 -5
-19 -4 -3 -7 6 -7 19 0 25 8 25 12 0z m-71 -15 c-3 -5 -12 -10 -18 -10 -7 0
-6 4 3 10 19 12 23 12 15 0z m35 0 c0 -5 -5 -10 -11 -10 -5 0 -7 5 -4 10 3 6
8 10 11 10 2 0 4 -4 4 -10z m480 -4 c0 -2 -6 -9 -14 -15 -11 -9 -16 -9 -22 0
-4 7 -3 9 4 5 6 -3 13 -2 17 4 6 10 15 14 15 6z m-410 -12 c0 -8 -19 -13 -24
-6 -3 5 1 9 9 9 8 0 15 -2 15 -3z m-159 -37 c-10 -9 -11 -8 -5 6 3 10 9 15 12
12 3 -3 0 -11 -7 -18z m499 17 c0 -8 -19 -13 -24 -6 -3 5 1 9 9 9 8 0 15 -2
15 -3z m26 -18 c0 -14 -3 -23 -7 -20 -6 3 -6 22 0 42 3 10 7 -2 7 -22z m-480
-10 c0 -14 -3 -23 -7 -20 -6 3 -6 22 0 42 3 10 7 -2 7 -22z m-32 -14 c2 -4 -4
-8 -14 -8 -10 0 -16 4 -14 8 3 4 9 8 14 8 5 0 11 -4 14 -8z m116 -4 c0 -4 -4
-8 -9 -8 -6 0 -12 4 -15 8 -3 5 1 9 9 9 8 0 15 -4 15 -9z m360 2 c0 -5 -5 -10
-11 -10 -5 0 -7 5 -4 10 3 6 8 10 11 10 2 0 4 -4 4 -10z m117 -11 c1 -10 -3
-22 -9 -25 -7 -4 -8 -2 -4 5 4 6 3 18 -3 25 -8 9 -7 13 2 13 7 0 14 -8 14 -18z
m129 9 c3 -4 -1 -5 -10 -4 -8 1 -18 5 -22 8 -3 4 1 5 10 4 8 -1 18 -5 22 -8z
m-206 -18 c0 -5 -4 -10 -10 -10 -5 0 -10 5 -10 10 0 6 5 10 10 10 6 0 10 -4
10 -10z m334 2 c3 -5 -1 -9 -9 -9 -8 0 -12 4 -9 9 3 4 7 8 9 8 2 0 6 -4 9 -8z
m-825 -26 c9 -11 9 -16 -1 -22 -7 -4 -10 -4 -6 1 4 4 3 14 -3 22 -6 7 -9 13
-6 13 2 0 10 -6 16 -14z m451 4 c0 -5 -2 -10 -4 -10 -3 0 -8 5 -11 10 -3 6 -1
10 4 10 6 0 11 -4 11 -10z m84 2 c3 -5 -1 -9 -9 -9 -8 0 -15 4 -15 9 0 4 4 8
9 8 6 0 12 -4 15 -8z m246 2 c0 -8 -19 -13 -24 -6 -3 5 1 9 9 9 8 0 15 -2 15
-3z m106 -19 c1 -8 -1 -17 -5 -19 -4 -3 -7 6 -7 19 0 25 8 25 12 0z m58 9 c3
-8 2 -12 -4 -9 -6 3 -10 10 -10 16 0 14 7 11 14 -7z m-138 -19 c1 -8 -1 -17
-5 -19 -4 -3 -7 6 -7 19 0 25 8 25 12 0z m-899 0 c0 -8 -4 -12 -9 -9 -4 3 -8
9 -8 15 0 5 4 9 8 9 5 0 9 -7 9 -15z m197 6 c-7 -8 -54 -9 -49 -1 2 3 15 6 29
6 14 0 23 -2 20 -5z m603 -6 c0 -8 -4 -12 -9 -9 -4 3 -8 9 -8 15 0 5 4 9 8 9
5 0 9 -7 9 -15z m-597 -19 c0 -2 -8 -10 -17 -17 -16 -13 -17 -12 -4 4 13 16
21 21 21 13z m460 -17 c0 -5 -4 -9 -8 -9 -5 0 -9 7 -9 15 0 8 4 12 9 9 4 -3 8
-9 8 -15z m-670 5 c0 -8 -19 -13 -24 -6 -3 5 1 9 9 9 8 0 15 -2 15 -3z m770
-3 c0 -6 -4 -12 -8 -15 -5 -3 -9 1 -9 9 0 8 4 15 9 15 4 0 8 -4 8 -9z m255
-10 c3 -5 2 -12 -3 -15 -5 -3 -9 1 -9 9 0 17 3 19 12 6z m-395 -10 c0 -5 -8
-15 -17 -22 -16 -12 -17 -12 -6 2 7 9 10 19 6 22 -3 4 -1 7 5 7 7 0 12 -4 12
-9z m284 1 c3 -5 -1 -9 -9 -9 -8 0 -15 4 -15 9 0 4 4 8 9 8 6 0 12 -4 15 -8z
m76 0 c0 -5 -7 -9 -15 -9 -8 0 -12 4 -9 9 3 4 9 8 15 8 5 0 9 -4 9 -8z m-323
-17 c0 -8 -4 -12 -9 -9 -5 3 -6 10 -3 15 9 13 12 11 12 -6z m-753 -3 c3 -5 -1
-9 -9 -9 -8 0 -12 4 -9 9 3 4 7 8 9 8 2 0 6 -4 9 -8z m136 2 c0 -8 -19 -13
-24 -6 -3 5 1 9 9 9 8 0 15 -2 15 -3z m800 0 c0 -8 -19 -13 -24 -6 -3 5 1 9 9
9 8 0 15 -2 15 -3z m-55 -24 c-3 -5 -12 -10 -18 -10 -7 0 -6 4 3 10 19 12 23
12 15 0z m-1308 -15 c0 -8 -4 -12 -9 -9 -5 3 -6 10 -3 15 9 13 12 11 12 -6z
m1338 6 c3 -5 2 -12 -3 -15 -5 -3 -9 1 -9 9 0 17 3 19 12 6z m-1463 -12 c2 -2
1 -3 -1 -2 -2 2 -9 -2 -16 -7 -8 -7 -12 -5 -12 4 0 12 22 16 29 5z m93 1 c3
-6 -1 -7 -9 -4 -18 7 -21 14 -7 14 6 0 13 -4 16 -10z m-428 -15 c0 -8 -4 -12
-9 -9 -5 3 -6 10 -3 15 9 13 12 11 12 -6z m199 -20 c-1 -13 -4 -27 -7 -30 -5
-4 -4 41 0 53 4 10 8 -2 7 -23z m160 1 c0 -14 -3 -23 -7 -20 -6 3 -6 22 0 42
3 10 7 -2 7 -22z m221 -1 c0 -8 -4 -15 -9 -15 -10 0 -11 14 -1 23 9 10 10 9
10 -8z m-533 -6 c3 -3 -5 -5 -19 -5 -13 0 -22 3 -19 7 4 8 30 6 38 -2z m213
-4 c0 -8 -4 -12 -9 -9 -4 3 -8 9 -8 15 0 5 4 9 8 9 5 0 9 -7 9 -15z m267 6
c-8 -8 -34 -10 -38 -2 -3 4 6 7 19 7 14 0 22 -2 19 -5z m-540 -19 c3 -5 -1 -9
-9 -9 -8 0 -12 4 -9 9 3 4 7 8 9 8 2 0 6 -4 9 -8z m176 -1 c0 -6 -4 -12 -8
-15 -5 -3 -9 1 -9 9 0 8 4 15 9 15 4 0 8 -4 8 -9z m234 1 c3 -5 -1 -9 -9 -9
-8 0 -12 4 -9 9 3 4 7 8 9 8 2 0 6 -4 9 -8z m46 -4 c0 -4 -4 -8 -9 -8 -6 0
-12 4 -15 8 -3 5 1 9 9 9 8 0 15 -4 15 -9z m-380 -2 c0 -2 -8 -10 -17 -17 -16
-13 -17 -12 -4 4 13 16 21 21 21 13z m439 -9 c8 -10 7 -14 -2 -14 -8 0 -14 6
-14 14 0 7 1 13 2 13 2 0 8 -6 14 -13z m-269 -3 c0 -8 -19 -13 -24 -6 -3 5 1
9 9 9 8 0 15 -2 15 -3z m25 -3 c3 -5 2 -12 -3 -15 -5 -3 -9 1 -9 9 0 17 3 19
12 6z m90 0 c-9 -8 -36 -10 -30 -2 2 4 11 8 20 8 8 0 13 -3 10 -6z m52 -16 c0
-8 -4 -12 -9 -9 -5 3 -6 10 -3 15 9 13 12 11 12 -6z m-360 -33 c0 -10 -6 -19
-13 -19 -9 0 -9 5 -1 19 7 10 13 18 14 18 1 0 1 -8 0 -18z m257 9 c-8 -8 -34
-10 -38 -2 -3 4 6 7 19 7 14 0 22 -2 19 -5z m43 -6 c0 -8 -4 -12 -9 -9 -4 3
-8 9 -8 15 0 5 4 9 8 9 5 0 9 -7 9 -15z m107 4 c3 -3 -5 -5 -19 -5 -13 0 -22
3 -19 7 4 8 30 6 38 -2z m-208 -24 c0 -14 -4 -25 -8 -25 -6 0 -5 25 1 48 3 10
7 -2 7 -23z m-236 10 c0 -7 -30 -13 -34 -7 -3 4 4 9 15 9 10 1 19 0 19 -2z
m200 -7 c0 -4 -4 -8 -9 -8 -6 0 -12 4 -15 8 -3 5 1 9 9 9 8 0 15 -4 15 -9z
m-43 -13 c0 -8 -4 -12 -9 -9 -5 3 -6 10 -3 15 9 13 12 11 12 -6z m179 -7 c3
-4 -1 -5 -10 -4 -8 1 -18 5 -22 8 -3 4 1 5 10 4 8 -1 18 -5 22 -8z m89 3 c-9
-8 -36 -10 -30 -2 2 4 11 8 20 8 8 0 13 -3 10 -6z m46 -14 c-10 -9 -11 -8 -5
6 3 10 9 15 12 12 3 -3 0 -11 -7 -18z m-476 -5 c-3 -3 3 -15 12 -26 14 -15 14
-18 2 -8 -9 6 -19 8 -23 4 -4 -4 -6 0 -4 8 2 8 -3 14 -10 12 -8 -1 -11 1 -8 6
3 5 12 9 21 9 8 0 13 -3 10 -5z m160 -10 c-3 -3 -11 0 -18 7 -9 10 -8 11 6 5
10 -3 15 -9 12 -12z m49 10 c2 -4 -4 -8 -14 -8 -10 0 -16 4 -14 8 3 4 9 8 14
8 5 0 11 -4 14 -8z m80 0 c3 -5 -1 -9 -9 -9 -8 0 -15 4 -15 9 0 4 4 8 9 8 6 0
12 -4 15 -8z m129 -17 c15 1 25 -1 22 -4 -13 -12 -56 -7 -68 8 -10 14 -10 14
3 5 8 -6 27 -10 43 -9z m-387 -63 c-17 -16 -18 -16 -5 5 7 12 15 20 18 17 3
-2 -3 -12 -13 -22z m145 11 c13 -16 12 -17 -3 -4 -17 13 -22 21 -14 21 2 0 10
-8 17 -17z m149 5 c0 -6 -3 -8 -7 -5 -3 4 -13 1 -22 -6 -14 -11 -14 -10 -2 6
15 20 31 22 31 5z m110 8 c0 -2 -8 -10 -17 -17 -16 -13 -17 -12 -4 4 13 16 21
21 21 13z m61 -19 c-10 -9 -11 -8 -5 6 3 10 9 15 12 12 3 -3 0 -11 -7 -18z
m40 6 c13 -16 12 -17 -3 -4 -17 13 -22 21 -14 21 2 0 10 -8 17 -17z m-455 -18
c-1 -8 -5 -17 -8 -21 -5 -4 -4 16 1 34 3 9 9 -1 7 -13z m164 3 c0 -4 -4 -8 -9
-8 -6 0 -12 4 -15 8 -3 5 1 9 9 9 8 0 15 -4 15 -9z m-43 -26 c0 -10 -6 -19
-13 -19 -9 0 -9 5 -1 19 7 10 13 18 14 18 1 0 1 -8 0 -18z m81 -3 c9 -12 9
-16 -1 -16 -7 0 -14 9 -14 20 -1 11 -1 18 0 16 2 -2 8 -11 15 -20z m179 4 c0
-10 -4 -10 -16 -1 -9 7 -18 13 -20 15 -2 1 5 1 16 0 11 0 20 -7 20 -14z m62
14 c-2 -2 -11 -8 -20 -15 -12 -9 -16 -9 -16 1 0 7 9 14 20 14 11 1 18 1 16 0z
m-401 -37 c-7 -10 -14 -17 -17 -15 -4 4 18 35 25 35 2 0 -1 -9 -8 -20z m292
16 c0 -2 -8 -10 -17 -17 -16 -13 -17 -12 -4 4 13 16 21 21 21 13z m141 -38
c-11 -11 -13 -10 -7 0 4 7 2 21 -5 30 -12 15 -11 15 6 0 16 -15 17 -20 6 -30z
m43 33 c3 -5 -2 -15 -12 -22 -15 -12 -16 -12 -5 2 7 9 10 19 6 22 -3 4 -4 7 0
7 3 0 8 -4 11 -9z m-578 -16 c-1 -8 -5 -17 -8 -21 -5 -4 -4 16 1 34 3 9 9 -1
7 -13z m316 0 c2 3 5 -2 5 -10 0 -19 0 -19 -23 7 -12 14 -13 18 -3 10 9 -6 18
-10 21 -7z m744 -5 c0 -12 -4 -16 -9 -11 -5 5 -6 14 -3 20 10 15 12 14 12 -9z
m-645 -13 c-10 -9 -11 -8 -5 6 3 10 9 15 12 12 3 -3 0 -11 -7 -18z m-277 -36
c-2 -3 -12 3 -22 13 -16 17 -16 18 5 5 12 -7 20 -15 17 -18z m162 7 c4 -7 4
-10 -1 -6 -4 4 -15 2 -24 -5 -14 -11 -14 -10 -2 6 16 20 18 21 27 5z m41 -6
c0 -10 -6 -19 -13 -19 -9 0 -9 5 -1 19 7 10 13 18 14 18 1 0 1 -8 0 -18z m554
1 c13 -16 12 -17 -3 -4 -17 13 -22 21 -14 21 2 0 10 -8 17 -17z m-776 -34 c3
-3 -6 -5 -19 -5 -14 1 -28 4 -31 7 -3 3 6 5 19 5 14 -1 28 -4 31 -7z m145 -14
c14 -19 14 -19 -2 -6 -10 7 -18 18 -18 24 0 6 1 8 3 6 1 -2 9 -13 17 -24z
m-44 -21 c1 -9 0 -13 -4 -10 -3 4 -7 14 -8 22 -1 9 0 13 4 10 3 -4 7 -14 8
-22z m105 -1 c13 -16 12 -17 -3 -4 -17 13 -22 21 -14 21 2 0 10 -8 17 -17z
m-341 1 c0 -8 -19 -13 -24 -6 -3 5 1 9 9 9 8 0 15 -2 15 -3z m91 -11 c13 -17
13 -17 -6 -3 -11 8 -22 16 -24 17 -2 2 0 3 6 3 6 0 17 -8 24 -17z m-53 -23
c-7 -10 -14 -17 -17 -15 -4 4 18 35 25 35 2 0 -1 -9 -8 -20z m122 6 c-7 -7
-13 -7 -20 0 -6 6 -3 10 10 10 13 0 16 -4 10 -10z m55 -8 c5 4 5 1 1 -6 -6
-10 -11 -10 -22 -1 -8 6 -14 14 -14 16 0 3 6 0 13 -6 8 -6 18 -7 22 -3z m-124
-21 c-10 -9 -11 -8 -5 6 3 10 9 15 12 12 3 -3 0 -11 -7 -18z m85 -27 c0 -12
-4 -16 -9 -11 -5 5 -6 14 -3 20 10 15 12 14 12 -9z m1340 2 c-3 -3 0 -12 6
-21 10 -13 10 -14 -2 -4 -16 15 -23 46 -8 37 5 -3 7 -9 4 -12z m-1462 -4 c-3
-4 -11 -5 -19 -1 -21 7 -19 12 4 10 11 0 18 -5 15 -9z m-64 -14 c0 -8 -19 -13
-24 -6 -3 5 1 9 9 9 8 0 15 -2 15 -3z m251 -7 c-6 -8 -7 -18 -3 -22 4 -5 1 -5
-6 -1 -10 6 -10 11 -1 22 6 8 14 14 16 14 3 0 0 -6 -6 -13z m-188 -12 c-3 -9
-8 -14 -10 -11 -3 3 -2 9 2 15 9 16 15 13 8 -4z m45 -10 c-3 -3 -9 2 -12 12
-6 14 -5 15 5 6 7 -7 10 -15 7 -18z m222 1 c-7 -7 -13 -7 -20 0 -6 6 -3 10 10
10 13 0 16 -4 10 -10z m-315 -16 c3 -6 -1 -7 -9 -4 -18 7 -21 14 -7 14 6 0 13
-4 16 -10z m193 -9 c-7 -9 -13 -18 -15 -20 -1 -2 -1 5 0 16 0 11 7 20 14 20
10 0 10 -4 1 -16z m86 11 c2 -4 -4 -8 -14 -8 -10 0 -16 4 -14 8 3 4 9 8 14 8
5 0 11 -4 14 -8z m70 0 c3 -5 -1 -9 -9 -9 -8 0 -12 4 -9 9 3 4 7 8 9 8 2 0 6
-4 9 -8z m1204 -11 c-7 -9 -13 -18 -15 -20 -1 -2 -1 5 0 16 0 11 7 20 14 20
10 0 10 -4 1 -16z m-1470 0 c16 12 16 12 0 -6 -18 -19 -18 -19 -35 0 -17 18
-17 18 0 6 14 -11 20 -11 35 0z m-98 -7 c0 -8 -19 -13 -24 -6 -3 5 1 9 9 9 8
0 15 -2 15 -3z m1206 -20 c1 -9 0 -13 -4 -10 -3 4 -7 14 -8 22 -1 9 0 13 4 10
3 -4 7 -14 8 -22z m480 2 c1 -7 -4 -13 -12 -13 -9 0 -11 4 -4 12 5 7 8 15 5
18 -3 4 -2 5 2 2 4 -3 8 -11 9 -19z m61 9 c0 -8 -4 -12 -9 -9 -5 3 -6 10 -3
15 9 13 12 11 12 -6z m-1146 -22 c13 -16 12 -17 -3 -4 -17 13 -22 21 -14 21 2
0 10 -8 17 -17z m929 5 c0 -4 -4 -8 -9 -8 -6 0 -12 4 -15 8 -3 5 1 9 9 9 8 0
15 -4 15 -9z m279 -22 c-3 -3 -11 5 -18 17 -13 21 -12 21 5 5 10 -10 16 -20
13 -22z m-1728 10 c-12 -14 -35 -16 -47 -3 -4 3 3 5 14 2 12 -2 24 0 27 6 4 5
9 9 12 9 3 0 0 -6 -6 -14z m336 -4 c-10 -10 -16 -21 -15 -23 2 -2 1 -3 -1 -1
-3 1 -6 9 -7 17 -1 8 2 13 6 10 5 -3 11 -1 15 5 3 5 9 10 12 10 3 0 -1 -8 -10
-18z m61 -5 c17 -18 19 -24 7 -24 -8 0 -13 3 -10 5 3 3 -2 14 -12 24 -24 27
-10 22 15 -5z m1111 10 c8 -10 7 -14 -2 -14 -8 0 -14 6 -14 14 0 7 1 13 2 13
2 0 8 -6 14 -13z m-1045 -13 c3 -8 2 -12 -4 -9 -6 3 -10 10 -10 16 0 14 7 11
14 -7z m-90 -12 c2 -4 -4 -8 -14 -8 -10 0 -16 4 -14 8 3 4 9 8 14 8 5 0 11 -4
14 -8z m156 4 c0 -3 -4 -8 -10 -11 -5 -3 -10 -1 -10 4 0 6 5 11 10 11 6 0 10
-2 10 -4z m1180 -10 c0 -2 -8 -10 -17 -17 -16 -13 -17 -12 -4 4 13 16 21 21
21 13z m117 -18 c-3 -8 -6 -5 -6 6 -1 11 2 17 5 13 3 -3 4 -12 1 -19z m73 7
c12 2 20 1 16 -3 -13 -13 -63 -10 -63 4 0 9 4 11 12 4 6 -5 22 -8 35 -5z
m-1959 -12 c13 -17 13 -17 -6 -3 -11 8 -22 16 -24 17 -2 2 0 3 6 3 6 0 17 -8
24 -17z m200 0 c13 -17 13 -17 -6 -3 -11 8 -22 16 -24 17 -2 2 0 3 6 3 6 0 17
-8 24 -17z m68 14 c-2 -2 -11 -8 -20 -15 -12 -9 -16 -9 -16 1 0 7 9 14 20 14
11 1 18 1 16 0z m98 -14 c0 -10 -4 -10 -16 -1 -9 7 -18 13 -20 15 -2 1 5 1 16
0 11 0 20 -7 20 -14z m157 9 c2 -4 -5 -9 -17 -9 -17 -2 -19 0 -7 7 18 12 18
12 24 2z m1157 -9 c13 -16 12 -17 -3 -4 -15 11 -21 11 -35 0 -16 -13 -17 -12
-4 4 7 9 17 17 21 17 4 0 14 -8 21 -17z m-1701 -9 c0 -8 -19 -13 -24 -6 -3 5
1 9 9 9 8 0 15 -2 15 -3z m330 -8 c-7 -7 -13 -7 -20 0 -6 6 -3 10 10 10 13 0
16 -4 10 -10z m1277 -4 c-17 -18 -51 -27 -41 -10 3 5 9 6 14 3 4 -3 13 2 20
10 7 8 15 15 18 15 3 0 -2 -8 -11 -18z m158 0 c-3 -3 -11 0 -18 7 -9 10 -8 11
6 5 10 -3 15 -9 12 -12z m-1301 -22 c-6 -6 -10 -3 -10 10 0 13 4 16 10 10 7
-7 7 -13 0 -20z m47 13 c13 -16 12 -17 -3 -4 -17 13 -22 21 -14 21 2 0 10 -8
17 -17z m35 2 c-1 -8 -5 -17 -8 -21 -5 -4 -4 16 1 34 3 9 9 -1 7 -13z m57 0
c-3 -9 -8 -14 -10 -11 -3 3 -2 9 2 15 9 16 15 13 8 -4z m1383 -5 c0 -12 -4
-16 -9 -11 -5 5 -6 14 -3 20 10 15 12 14 12 -9z m-1950 -18 c-17 -16 -18 -16
-5 5 7 12 15 20 18 17 3 -2 -3 -12 -13 -22z m228 12 c3 -8 2 -12 -4 -9 -6 3
-10 10 -10 16 0 14 7 11 14 -7z m117 -7 c-10 -9 -11 -8 -5 6 3 10 9 15 12 12
3 -3 0 -11 -7 -18z m829 17 c0 -8 -19 -13 -24 -6 -3 5 1 9 9 9 8 0 15 -2 15
-3z m454 -10 c3 -8 2 -12 -4 -9 -6 3 -10 10 -10 16 0 14 7 11 14 -7z m37 -7
c-10 -9 -11 -8 -5 6 3 10 9 15 12 12 3 -3 0 -11 -7 -18z m123 14 c-7 -8 -54
-9 -49 -1 2 3 15 6 29 6 14 0 23 -2 20 -5z m200 1 c3 -5 -1 -9 -9 -9 -8 0 -12
4 -9 9 3 4 7 8 9 8 2 0 6 -4 9 -8z m-1937 -27 c0 -8 -4 -12 -9 -9 -5 3 -6 10
-3 15 9 13 12 11 12 -6z m394 -8 c-10 -9 -11 -8 -5 6 3 10 9 15 12 12 3 -3 0
-11 -7 -18z m1046 16 c-4 -3 1 -16 10 -27 18 -21 18 -21 -4 -2 -20 16 -23 36
-6 36 4 0 3 -3 0 -7z m538 -3 c3 -5 1 -10 -4 -10 -6 0 -11 5 -11 10 0 6 2 10
4 10 3 0 8 -4 11 -10z m-1638 -15 c0 -8 -4 -15 -9 -15 -10 0 -11 14 -1 23 9
10 10 9 10 -8z m1670 -3 c-10 -10 -14 -22 -10 -25 3 -4 1 -7 -5 -7 -7 0 -12 3
-12 7 0 8 31 43 38 43 3 0 -2 -8 -11 -18z m-1557 2 c0 -8 -19 -13 -24 -6 -3 5
1 9 9 9 8 0 15 -2 15 -3z m1309 3 c-2 -1 -13 -9 -24 -17 -19 -14 -19 -14 -6 3
7 9 18 17 24 17 6 0 8 -1 6 -3z m120 0 c-2 -2 -11 -8 -20 -15 -12 -9 -16 -9
-16 1 0 7 9 14 20 14 11 1 18 1 16 0z m-764 -16 c3 -5 2 -12 -3 -15 -5 -3 -9
1 -9 9 0 17 3 19 12 6z m676 -18 c13 -16 12 -17 -3 -4 -10 7 -18 15 -18 17 0
8 8 3 21 -13z m120 0 c13 -16 12 -17 -3 -4 -10 7 -18 15 -18 17 0 8 8 3 21
-13z m-334 -7 c0 -15 -21 -16 -34 -1 -4 4 -3 5 4 1 6 -3 14 -2 18 4 8 14 12
13 12 -4z m-1399 -5 c6 -1 12 -12 12 -25 0 -20 -4 -23 -37 -22 -37 1 -40 5
-34 44 0 5 11 8 24 6 12 -1 28 -3 35 -3z m283 -14 c16 -28 3 -34 -73 -32 -92
3 -88 2 -88 24 0 24 6 26 86 26 52 -1 68 -4 75 -18z m995 11 c3 -4 -1 -5 -10
-4 -8 1 -18 5 -22 8 -3 4 1 5 10 4 8 -1 18 -5 22 -8z m199 -6 c-3 -3 -11 0
-18 7 -9 10 -8 11 6 5 10 -3 15 -9 12 -12z m80 9 c3 -5 2 -12 -3 -15 -5 -3 -9
1 -9 9 0 17 3 19 12 6z m101 -27 c1 -9 -1 -13 -4 -9 -4 4 -7 10 -7 13 0 4 -4
14 -9 22 -7 12 -6 13 4 3 8 -7 15 -20 16 -29z m-315 9 c13 -16 12 -17 -3 -4
-17 13 -22 21 -14 21 2 0 10 -8 17 -17z m480 -6 c-6 -8 -9 -16 -6 -19 3 -3 -3
-11 -12 -19 -16 -13 -17 -12 -4 4 7 9 10 17 6 17 -4 0 -2 7 5 15 7 8 15 15 17
15 3 0 0 -6 -6 -13z m-1436 -24 c7 -10 11 -21 9 -25 -8 -12 -47 7 -62 31 -14
21 -14 22 13 17 15 -3 33 -13 40 -23z m1012 14 c0 -7 -9 -14 -20 -14 -19 -2
-19 -2 -1 12 11 8 19 15 20 15 0 0 1 -6 1 -13z m62 0 c-2 -2 -11 -8 -20 -15
-12 -9 -16 -9 -16 1 0 7 9 14 20 14 11 1 18 1 16 0z m79 -18 c9 -12 9 -16 -1
-16 -7 0 -14 9 -14 20 -1 11 -1 18 0 16 2 -2 8 -11 15 -20z m39 -14 c0 -8 -4
-12 -9 -9 -5 3 -6 10 -3 15 9 13 12 11 12 -6z m123 0 c-10 -12 -10 -18 1 -32
12 -17 12 -17 -6 -1 -15 14 -16 20 -5 32 7 9 15 16 17 16 3 0 0 -7 -7 -15z
m45 5 c3 -6 -1 -7 -9 -4 -18 7 -21 14 -7 14 6 0 13 -4 16 -10z m-829 -12 c5 4
5 3 1 -2 -12 -15 -34 -15 -34 0 0 9 4 11 12 4 7 -5 16 -6 21 -2z m-1180 -132
c15 18 15 18 9 -1 -6 -20 -7 -236 -1 -265 2 -8 6 -23 9 -32 4 -10 9 -26 12
-35 4 -11 9 -13 16 -6 6 6 6 19 -1 38 -11 29 -11 95 1 95 3 0 9 -22 13 -48 5
-43 70 -172 85 -172 15 0 34 49 32 82 -1 21 4 59 12 85 30 108 -1 201 -84 252
l-34 21 243 0 243 0 28 -61 c16 -33 31 -56 33 -52 3 4 4 45 4 90 -1 71 1 80
13 68 11 -11 15 -45 16 -132 2 -116 3 -119 43 -203 l41 -85 1 130 0 130 21
-25 c35 -43 42 -72 43 -172 1 -54 1 -98 0 -98 -1 0 -14 6 -29 14 -15 8 -35 12
-44 9 -27 -10 -52 -36 -49 -52 3 -23 -21 -87 -37 -101 -8 -7 -13 -15 -10 -19
13 -22 37 -175 45 -291 0 -8 7 -23 15 -34 13 -18 20 -13 108 78 l94 96 25 -56
c14 -31 28 -52 30 -47 2 4 4 88 4 186 -1 97 0 177 1 177 3 0 109 -163 124
-191 9 -18 13 -88 15 -259 0 -129 4 -242 8 -251 5 -12 0 -18 -23 -22 -37 -8
-41 -27 -6 -27 33 0 32 -10 -5 -45 -28 -27 -30 -27 -55 -11 -45 30 -158 27
-189 -4 -8 -8 1 -10 29 -9 59 3 85 -8 85 -37 0 -22 -30 -63 -47 -65 -57 -6
-93 -19 -121 -47 l-28 -27 -164 2 c-91 1 -175 2 -187 2 -19 1 -22 5 -17 31 16
79 -26 148 -107 174 -55 18 -79 15 -36 -5 36 -16 68 -89 79 -178 3 -26 -13
-28 -158 -22 -16 1 -21 8 -22 32 -1 36 -23 73 -65 108 -47 39 -58 52 -52 61 3
4 13 7 23 5 9 -2 20 -4 24 -4 19 -2 72 -59 93 -100 24 -46 25 -46 19 -11 -6
38 -33 87 -77 136 -15 18 -30 46 -33 61 -35 186 -38 294 -10 408 21 86 4 90
-37 9 -40 -79 -61 -165 -55 -218 4 -39 -2 -45 -23 -20 -30 37 -132 73 -228 81
-31 2 -57 6 -59 8 -2 2 -14 0 -27 -5 -34 -13 -37 -2 -13 44 20 38 22 56 23
232 l0 192 49 76 c26 43 50 75 53 72 12 -12 2 -230 -13 -257 -8 -16 -12 -29
-8 -29 4 0 2 -6 -4 -12 -8 -10 -42 -111 -42 -124 0 -2 16 -4 35 -6 l35 -3 -30
-31 c-16 -18 -32 -44 -36 -58 -10 -43 22 -32 77 25 l49 51 29 -21 c16 -12 41
-35 55 -51 13 -17 27 -26 31 -21 8 14 -32 95 -60 124 -21 20 -24 33 -24 93 0
46 -6 83 -17 106 -16 35 -16 37 10 91 24 51 26 66 26 184 0 111 3 132 20 158
l20 30 1 -110 c0 -60 3 -104 6 -97 3 7 32 -31 66 -87 34 -56 65 -101 69 -101
5 0 3 10 -4 23 -7 12 -13 24 -13 27 0 3 -12 39 -25 80 -20 64 -24 96 -25 222
0 82 4 157 9 170 9 19 11 8 14 -56 3 -72 4 -77 18 -60z m174 85 l0 -49 -76 1
c-75 1 -75 1 -69 25 14 56 34 72 91 72 l54 0 0 -49z m188 2 c-3 -46 -4 -48
-33 -48 -29 0 -30 2 -31 48 l-1 47 34 0 34 0 -3 -47z m1188 34 c4 -3 -4 -4
-16 -2 -30 6 -40 16 -12 12 12 -2 24 -6 28 -10z m159 4 c-9 -8 -36 -10 -30 -2
2 4 11 8 20 8 8 0 13 -3 10 -6z m-147 -31 c-7 -10 -14 -17 -17 -15 -4 4 18 35
25 35 2 0 -1 -9 -8 -20z m52 15 c0 -1 -10 -10 -22 -21 -14 -12 -18 -13 -10 -3
6 9 10 18 7 21 -3 2 2 5 10 5 8 0 15 -1 15 -2z m187 -18 c1 -11 1 -18 0 -16
-2 2 -8 11 -15 20 -9 12 -9 16 1 16 7 0 14 -9 14 -20z m49 11 c3 -4 -1 -5 -10
-4 -8 1 -18 5 -22 8 -3 4 1 5 10 4 8 -1 18 -5 22 -8z m159 2 c-3 -5 -12 -10
-18 -10 -7 0 -6 4 3 10 19 12 23 12 15 0z m-821 -19 c14 -15 15 -21 4 -27 -7
-4 -10 -3 -5 1 4 5 0 17 -10 27 -9 10 -14 18 -11 18 3 0 13 -9 22 -19z m706 4
c-7 -8 -17 -15 -23 -15 -6 0 -2 7 9 15 25 19 30 19 14 0z m-252 -16 c9 -12 9
-16 -1 -16 -7 0 -14 9 -14 20 -1 11 -1 18 0 16 2 -2 8 -11 15 -20z m-118 -11
c0 -4 -4 -8 -9 -8 -6 0 -12 4 -15 8 -3 5 1 9 9 9 8 0 15 -4 15 -9z m59 -11 c8
-10 7 -14 -2 -14 -8 0 -14 6 -14 14 0 7 1 13 2 13 2 0 8 -6 14 -13z m95 -17
c-6 -6 -10 -3 -10 10 0 13 4 16 10 10 7 -7 7 -13 0 -20z m102 10 c0 -12 -4
-16 -9 -11 -5 5 -6 14 -3 20 10 15 12 14 12 -9z m202 -5 c-3 -3 -9 2 -12 12
-6 14 -5 15 5 6 7 -7 10 -15 7 -18z m-233 6 c-9 -8 -36 -10 -30 -2 2 4 11 8
20 8 8 0 13 -3 10 -6z m131 -13 c19 -23 19 -23 -2 -5 -11 9 -24 14 -27 10 -4
-3 -7 -1 -7 5 0 19 15 14 36 -10z m84 8 c0 -2 -8 -10 -17 -17 -16 -13 -17 -12
-4 4 13 16 21 21 21 13z m-1218 -15 c10 -1 58 -54 58 -63 0 -5 -17 -8 -37 -8
-32 0 -41 6 -60 34 -28 44 -27 45 39 37z m454 -17 c1 -9 0 -13 -3 -10 -4 3
-13 0 -22 -6 -12 -10 -12 -7 2 8 9 11 15 24 12 27 -3 4 -2 5 2 2 4 -3 8 -13 9
-21z m-60 -10 c1 -9 0 -13 -4 -10 -3 4 -7 14 -8 22 -1 9 0 13 4 10 3 -4 7 -14
8 -22z m700 1 c-1 -13 -4 -27 -7 -30 -5 -4 -4 41 0 53 4 10 8 -2 7 -23z m-145
-2 c13 -16 12 -17 -3 -4 -15 11 -21 11 -35 0 -16 -13 -17 -12 -4 4 7 9 17 17
21 17 4 0 14 -8 21 -17z m305 2 c-1 -8 -5 -17 -8 -21 -5 -4 -4 16 1 34 3 9 9
-1 7 -13z m-404 -27 c-14 -14 -44 -20 -36 -7 3 5 10 7 15 4 5 -4 12 1 15 10 4
9 9 13 12 10 3 -3 0 -11 -6 -17z m163 14 c-3 -3 2 -14 12 -24 24 -27 10 -22
-15 5 -17 18 -19 24 -7 24 8 0 13 -3 10 -5z m45 -6 c-7 -7 -13 -7 -20 0 -6 6
-3 10 10 10 13 0 16 -4 10 -10z m238 -6 c-7 -10 -14 -17 -17 -15 -4 4 18 35
25 35 2 0 -1 -9 -8 -20z m-144 -20 c-6 -6 -10 -3 -10 10 0 13 4 16 10 10 7 -7
7 -13 0 -20z m-240 4 c3 -8 2 -12 -4 -9 -6 3 -10 10 -10 16 0 14 7 11 14 -7z
m37 -7 c-10 -9 -11 -8 -5 6 3 10 9 15 12 12 3 -3 0 -11 -7 -18z m-1579 -29
c15 -17 28 -36 29 -42 0 -6 3 -22 5 -36 3 -17 -2 -29 -16 -38 -18 -11 -20 -10
-20 8 0 15 -7 20 -29 20 -16 0 -32 -6 -34 -12 -3 -7 -4 15 -2 48 4 94 19 106
67 52z m1722 16 c3 -8 2 -12 -4 -9 -6 3 -10 10 -10 16 0 14 7 11 14 -7z m240
-23 c-2 -3 -12 3 -22 13 -16 17 -16 18 5 5 12 -7 20 -15 17 -18z m-543 2 c13
-16 12 -17 -3 -4 -10 7 -18 15 -18 17 0 8 8 3 21 -13z m189 2 c0 -2 -9 -3 -19
-2 -11 0 -18 5 -15 9 4 6 34 0 34 -7z m91 -2 c13 -16 12 -17 -3 -4 -10 7 -18
15 -18 17 0 8 8 3 21 -13z m62 2 c4 -8 3 -16 -1 -19 -4 -3 -9 4 -9 15 -2 23 3
25 10 4z m51 -13 c2 -4 -4 -8 -14 -8 -10 0 -16 4 -14 8 3 4 9 8 14 8 5 0 11
-4 14 -8z m-413 -35 c-10 -9 -11 -8 -5 6 3 10 9 15 12 12 3 -3 0 -11 -7 -18z
m114 13 c-3 -5 -12 -10 -18 -10 -7 0 -6 4 3 10 19 12 23 12 15 0z m110 -8 c-3
-3 -11 0 -18 7 -9 10 -8 11 6 5 10 -3 15 -9 12 -12z m26 -15 c-6 -8 -7 -18 -3
-22 4 -5 1 -5 -6 -1 -10 6 -10 11 -1 22 6 8 14 14 16 14 3 0 0 -6 -6 -13z m36
-9 c2 -17 0 -19 -7 -8 -5 8 -6 18 -4 22 8 12 10 10 11 -14z m240 -1 c1 -11 1
-18 0 -16 -2 2 -8 11 -15 20 -9 12 -9 16 1 16 7 0 14 -9 14 -20z m-101 -7 c0
-12 -4 -16 -9 -11 -5 5 -6 14 -3 20 10 15 12 14 12 -9z m-26 6 c0 -2 -8 -10
-17 -17 -16 -13 -17 -12 -4 4 13 16 21 21 21 13z m-72 -31 c-3 -3 -9 2 -12 12
-6 14 -5 15 5 6 7 -7 10 -15 7 -18z m-233 6 c-9 -8 -36 -10 -30 -2 2 4 11 8
20 8 8 0 13 -3 10 -6z m113 -11 c-7 -10 -14 -17 -17 -15 -4 4 18 35 25 35 2 0
-1 -9 -8 -20z m367 11 c-9 -8 -36 -10 -30 -2 2 4 11 8 20 8 8 0 13 -3 10 -6z
m-308 -16 c0 -8 -4 -15 -9 -15 -10 0 -11 14 -1 23 9 10 10 9 10 -8z m138 -3
c-3 -3 0 -10 5 -17 7 -8 5 -12 -5 -12 -8 0 -13 3 -10 5 3 3 0 10 -5 17 -7 8
-5 12 5 12 8 0 13 -3 10 -5z m36 -15 c-10 -9 -11 -8 -5 6 3 10 9 15 12 12 3
-3 0 -11 -7 -18z m-115 -2 c-1 -8 -5 -17 -8 -21 -5 -4 -4 16 1 34 3 9 9 -1 7
-13z m-868 -32 c77 -96 100 -128 97 -134 -5 -7 -124 -4 -128 2 -11 16 -77 120
-91 142 l-18 27 55 0 c51 0 56 -2 85 -37z m632 25 c0 -4 -4 -8 -9 -8 -6 0 -12
4 -15 8 -3 5 1 9 9 9 8 0 15 -4 15 -9z m284 4 c2 -4 -4 -8 -14 -8 -10 0 -16 4
-14 8 3 4 9 8 14 8 5 0 11 -4 14 -8z m-224 -23 c0 -5 -4 -9 -8 -9 -5 0 -9 7
-9 15 0 8 4 12 9 9 4 -3 8 -9 8 -15z m-1506 -21 c-10 -16 -22 -7 -17 13 4 15
8 17 14 8 4 -7 5 -17 3 -21z m1652 20 c3 -4 -1 -5 -10 -4 -8 1 -18 5 -22 8 -3
4 1 5 10 4 8 -1 18 -5 22 -8z m233 9 c-2 -1 -13 -9 -24 -17 -19 -14 -19 -14
-6 3 7 9 18 17 24 17 6 0 8 -1 6 -3z m-434 -27 c3 -6 -1 -7 -9 -4 -18 7 -21
14 -7 14 6 0 13 -4 16 -10z m271 -16 c1 -9 0 -13 -4 -10 -3 4 -7 14 -8 22 -1
9 0 13 4 10 3 -4 7 -14 8 -22z m193 12 c9 -11 9 -16 -1 -22 -7 -4 -10 -4 -6 1
4 4 3 14 -3 22 -6 7 -9 13 -6 13 2 0 10 -6 16 -14z m-354 -5 c3 -5 2 -12 -3
-15 -5 -3 -9 1 -9 9 0 17 3 19 12 6z m-155 -7 c0 -8 -19 -13 -24 -6 -3 5 1 9
9 9 8 0 15 -2 15 -3z m217 -9 c0 -8 -4 -12 -9 -9 -4 3 -8 9 -8 15 0 5 4 9 8 9
5 0 9 -7 9 -15z m247 6 c-3 -3 -11 -6 -17 -6 -7 -1 -11 -7 -9 -14 1 -7 -2 -10
-8 -6 -14 9 4 32 25 32 8 0 12 -3 9 -6z m-504 -21 c0 -5 -2 -10 -4 -10 -3 0
-8 5 -11 10 -3 6 -1 10 4 10 6 0 11 -4 11 -10z m397 -5 c0 -8 -4 -12 -9 -9 -5
3 -6 10 -3 15 9 13 12 11 12 -6z m-337 -16 c0 -5 -4 -9 -8 -9 -5 0 -9 7 -9 15
0 8 4 12 9 9 4 -3 8 -9 8 -15z m137 6 c0 -8 -4 -12 -9 -9 -5 3 -6 10 -3 15 9
13 12 11 12 -6z m-23 -11 c3 -8 2 -12 -4 -9 -6 3 -10 10 -10 16 0 14 7 11 14
-7z m81 6 c3 -5 1 -10 -4 -10 -6 0 -11 5 -11 10 0 6 2 10 4 10 3 0 8 -4 11
-10z m179 2 c3 -5 -1 -9 -9 -9 -8 0 -12 4 -9 9 3 4 7 8 9 8 2 0 6 -4 9 -8z
m-210 -61 c-16 -14 -17 -14 -6 0 7 9 10 25 6 35 -5 18 -5 18 6 0 10 -15 9 -21
-6 -35z m-193 6 c-10 -9 -11 -8 -5 6 3 10 9 15 12 12 3 -3 0 -11 -7 -18z m43
15 c3 -5 -1 -9 -9 -9 -8 0 -12 4 -9 9 3 4 7 8 9 8 2 0 6 -4 9 -8z m96 3 c0 -2
-6 -8 -13 -14 -10 -8 -14 -7 -14 2 0 8 6 14 14 14 7 0 13 -1 13 -2z m305 -4
c3 -5 2 -12 -3 -15 -5 -3 -9 1 -9 9 0 17 3 19 12 6z m-275 -15 c0 -3 -4 -8
-10 -11 -5 -3 -10 -1 -10 4 0 6 5 11 10 11 6 0 10 -2 10 -4z m244 -4 c3 -5 -1
-9 -9 -9 -8 0 -15 4 -15 9 0 4 4 8 9 8 6 0 12 -4 15 -8z m-184 -18 c0 -8 -19
-13 -24 -6 -3 5 1 9 9 9 8 0 15 -2 15 -3z m240 0 c0 -8 -19 -13 -24 -6 -3 5 1
9 9 9 8 0 15 -2 15 -3z m-34 -46 c3 -4 -1 -5 -10 -4 -8 1 -18 5 -22 8 -3 4 1
5 10 4 8 -1 18 -5 22 -8z m-352 -76 c3 -5 -1 -9 -9 -9 -8 0 -12 4 -9 9 3 4 7
8 9 8 2 0 6 -4 9 -8z m102 -4 c4 -7 4 -10 -1 -6 -4 4 -15 2 -24 -5 -14 -11
-14 -10 -2 6 16 20 18 21 27 5z m94 8 c0 -2 -8 -10 -17 -17 -16 -13 -17 -12
-4 4 13 16 21 21 21 13z m80 -2 c0 -8 -19 -13 -24 -6 -3 5 1 9 9 9 8 0 15 -2
15 -3z m87 -11 c0 -9 -4 -10 -14 -2 -7 6 -13 12 -13 14 0 1 6 2 13 2 8 0 14
-6 14 -14z m-1307 -8 c0 -2 -6 -8 -13 -14 -10 -8 -14 -7 -14 2 0 8 6 14 14 14
7 0 13 -1 13 -2z m91 -17 c5 -70 2 -86 -15 -116 -10 -18 -21 -31 -23 -28 -7 7
-5 145 2 157 11 17 35 9 36 -13z m1259 18 c0 -2 -7 -7 -16 -10 -8 -3 -12 -2
-9 4 6 10 25 14 25 6z m-142 -31 c-3 -3 -9 2 -12 12 -6 14 -5 15 5 6 7 -7 10
-15 7 -18z m-62 -7 c19 -23 19 -23 -2 -5 -11 9 -24 14 -29 10 -4 -5 -5 -2 -1
5 9 16 10 16 32 -10z m39 13 c3 -5 2 -12 -3 -15 -5 -3 -9 1 -9 9 0 17 3 19 12
6z m105 -1 c0 -5 -2 -10 -4 -10 -3 0 -8 5 -11 10 -3 6 -1 10 4 10 6 0 11 -4
11 -10z m64 2 c3 -5 -1 -9 -9 -9 -8 0 -12 4 -9 9 3 4 7 8 9 8 2 0 6 -4 9 -8z
m-367 -27 c0 -8 -4 -12 -9 -9 -5 3 -6 10 -3 15 9 13 12 11 12 -6z m-983 -25
c-6 -6 -10 -3 -10 10 0 13 4 16 10 10 7 -7 7 -13 0 -20z m1219 15 c-3 -9 -8
-14 -10 -11 -3 3 -2 9 2 15 9 16 15 13 8 -4z m71 -4 c14 -15 15 -21 4 -27 -7
-4 -10 -3 -5 1 4 5 0 17 -10 27 -9 10 -14 18 -11 18 3 0 13 -9 22 -19z m-254
3 c0 -8 -19 -13 -24 -6 -3 5 1 9 9 9 8 0 15 -2 15 -3z m-895 -24 c3 -5 1 -10
-4 -10 -6 0 -11 5 -11 10 0 6 2 10 4 10 3 0 8 -4 11 -10z m975 4 c0 -8 -19
-13 -24 -6 -3 5 1 9 9 9 8 0 15 -2 15 -3z m230 -2 c0 -5 -7 -9 -15 -9 -8 0
-12 4 -9 9 3 4 9 8 15 8 5 0 9 -4 9 -8z m-140 -22 c0 -5 -2 -10 -4 -10 -3 0
-8 5 -11 10 -3 6 -1 10 4 10 6 0 11 -4 11 -10z m34 2 c3 -5 -1 -9 -9 -9 -8 0
-12 4 -9 9 3 4 7 8 9 8 2 0 6 -4 9 -8z m66 -6 c0 -2 -8 -10 -17 -17 -16 -13
-17 -12 -4 4 13 16 21 21 21 13z m-643 -84 c69 -88 92 -117 131 -164 17 -22
32 -42 32 -44 0 -3 -51 -4 -112 -3 l-113 1 -70 111 c-38 60 -78 123 -88 138
l-19 29 94 0 93 -1 52 -67z m-659 3 c-3 -3 -9 2 -12 12 -6 14 -5 15 5 6 7 -7
10 -15 7 -18z m-1261 -254 c-3 -124 -7 -239 -10 -256 -3 -16 -8 -55 -11 -86
-8 -66 -13 -96 -20 -107 -5 -9 -114 -8 -123 1 -3 3 -5 109 -5 235 0 214 1 231
20 258 11 16 48 74 83 129 53 83 65 96 67 76 2 -14 2 -126 -1 -250z m1278 150
c3 -5 2 -12 -3 -15 -5 -3 -9 1 -9 9 0 17 3 19 12 6z m-795 -157 c24 -14 38
-33 50 -64 8 -25 18 -49 21 -55 14 -23 18 -45 9 -45 -6 0 -22 24 -36 54 -29
61 -46 79 -89 93 -41 14 -63 5 -36 -14 25 -17 54 -70 43 -77 -4 -2 -32 16 -62
40 -29 25 -67 52 -84 61 -28 15 -29 17 -11 24 39 14 159 4 195 -17z m1490
-169 c52 -80 114 -174 137 -209 26 -40 37 -66 30 -68 -10 -3 -248 -2 -268 1
-8 1 -7 421 1 421 3 0 48 -65 100 -145z m-217 -197 c20 -43 33 -78 29 -79 -9
-1 -164 -1 -179 0 -6 1 5 18 26 39 51 51 71 82 71 111 0 35 12 19 53 -71z
m-888 -258 l0 -155 -560 -2 c-308 -1 -565 0 -572 2 -7 2 14 57 59 147 38 79
73 148 78 153 5 6 185 10 502 10 l493 -1 0 -154z m1654 144 c8 -8 213 -265
233 -290 6 -8 -86 -11 -328 -11 l-335 0 -62 121 c-33 67 -68 137 -77 156 l-17
35 289 -1 c165 0 292 -4 297 -10z"/>
<path d="M3146 6233 c-4 -5 -191 -8 -414 -8 -344 -1 -407 -3 -404 -15 2 -8 23
-39 48 -70 24 -30 92 -116 150 -190 58 -74 113 -144 122 -155 9 -11 37 -47 62
-80 25 -33 50 -65 55 -71 6 -6 75 -95 155 -197 80 -102 152 -187 160 -189 8
-2 248 -4 533 -3 284 0 518 -3 518 -7 1 -5 2 -19 2 -33 0 -14 -1 -29 -2 -35
-1 -7 -170 -10 -486 -10 -267 0 -485 -3 -485 -7 0 -5 297 -455 323 -488 4 -5
29 -44 57 -85 27 -41 53 -79 57 -85 5 -5 24 -35 43 -65 19 -30 38 -58 43 -61
5 -3 137 -5 295 -5 l287 2 87 124 c48 69 92 132 98 140 6 8 32 45 58 82 26 37
67 97 92 133 25 36 84 120 132 188 l87 122 -136 3 c-118 2 -134 5 -129 18 3 9
9 27 12 40 7 28 -3 26 187 28 l147 1 186 245 c102 135 190 252 197 260 7 8 71
94 144 190 72 96 147 195 167 220 19 24 31 47 26 50 -5 3 -359 5 -787 5 -428
-1 -790 2 -805 6 -14 4 -29 4 -33 1 -10 -10 -829 -9 -836 0 -3 5 -9 5 -13 1z
m-572 -42 c9 -7 16 -19 16 -26 0 -8 3 -15 8 -17 19 -8 462 -690 462 -712 0
-13 6 -29 14 -35 10 -9 12 -20 6 -42 -10 -33 -10 -34 -10 -51 -1 -13 -10 -3
-62 63 -15 19 -92 117 -172 219 -80 102 -157 199 -170 215 -125 156 -304 390
-301 395 7 12 193 4 209 -9z m3006 6 c0 -7 -82 -117 -370 -497 -73 -96 -170
-226 -217 -287 -47 -62 -89 -111 -93 -108 -14 9 -21 104 -9 128 23 43 482 762
490 767 12 8 199 5 199 -3z m-1563 -810 c18 -9 41 -17 52 -17 20 0 65 -64 58
-83 -5 -15 -1028 -16 -1034 -1 -6 15 16 107 27 114 5 3 202 5 437 5 384 -1
431 -2 460 -18z m148 6 c-1 -10 3 -25 9 -33 9 -13 9 -13 -6 -2 -13 10 -16 26
-9 50 4 11 9 -2 6 -15z m693 8 c0 -3 1 -8 2 -11 1 -3 3 -14 5 -25 2 -11 7 -35
10 -52 3 -18 2 -33 -2 -34 -26 -3 -263 -3 -263 -1 0 2 28 31 62 65 l61 62 63
1 c35 0 63 -2 62 -5z m-572 -27 c1 -9 0 -13 -4 -10 -3 4 -7 14 -8 22 -1 9 0
13 4 10 3 -4 7 -14 8 -22z m-151 6 c3 -6 -1 -7 -9 -4 -18 7 -21 14 -7 14 6 0
13 -4 16 -10z m79 -79 c-2 -2 -10 1 -17 7 -8 7 -16 10 -19 7 -2 -3 -5 1 -5 9
0 12 5 11 23 -2 12 -9 20 -19 18 -21z m38 15 c-4 -6 -7 -14 -7 -18 0 -19 -11
-14 -11 6 0 12 6 23 13 23 6 0 9 -5 5 -11z m197 11 c-2 -2 -11 -8 -20 -15 -12
-9 -16 -9 -16 1 0 7 9 14 20 14 11 1 18 1 16 0z m-78 -24 c13 -16 12 -17 -3
-4 -10 7 -18 15 -18 17 0 8 8 3 21 -13z m-171 -57 c0 -2 -8 -10 -17 -17 -16
-13 -17 -12 -4 4 13 16 21 21 21 13z m160 0 c0 -2 -8 -10 -17 -17 -16 -13 -17
-12 -4 4 13 16 21 21 21 13z m21 -19 c-10 -9 -11 -8 -5 6 3 10 9 15 12 12 3
-3 0 -11 -7 -18z m25 -24 c-2 -9 -9 -19 -17 -21 -11 -3 -11 -1 1 7 8 6 11 11
7 11 -5 0 -5 5 -2 10 9 15 14 12 11 -7z m-204 -4 c2 -2 1 -3 -1 -2 -2 2 -9 -2
-16 -7 -8 -7 -12 -5 -12 4 0 12 22 16 29 5z m112 3 c3 -5 -1 -9 -9 -9 -8 0
-12 4 -9 9 3 4 7 8 9 8 2 0 6 -4 9 -8z m21 -22 c-3 -5 -12 -10 -18 -10 -7 0
-6 4 3 10 19 12 23 12 15 0z m-934 -212 c62 -101 116 -185 119 -188 3 -3 14
-21 24 -40 11 -19 38 -64 61 -100 22 -36 55 -87 72 -114 23 -36 29 -55 24 -74
-10 -36 -25 -37 -42 -5 -8 16 -16 30 -19 33 -3 3 -9 12 -15 21 -5 9 -101 153
-213 319 -112 166 -206 309 -209 316 -4 11 6 14 39 14 l44 0 115 -182z m1346
135 c-18 -27 -65 -93 -103 -148 -37 -55 -72 -101 -76 -103 -4 -2 -8 -10 -8
-17 0 -7 -3 -15 -8 -17 -4 -1 -24 -28 -45 -58 -59 -87 -158 -230 -204 -293
l-42 -58 -15 30 c-9 16 -16 35 -16 41 0 5 30 54 67 107 69 100 348 500 378
541 12 17 26 22 61 22 l46 0 -35 -47z m-387 22 c4 3 14 -3 21 -12 12 -15 12
-16 -1 -8 -8 6 -19 10 -24 10 -5 0 -10 6 -12 13 -1 7 0 8 3 2 2 -5 8 -8 13 -5z
m-50 -6 c0 -4 -9 -7 -19 -6 -11 0 -18 4 -16 7 6 9 35 8 35 -1z m-26 -48 c-2
-3 -12 3 -22 13 -16 17 -16 18 5 5 12 -7 20 -15 17 -18z m46 5 c0 -2 -8 -10
-17 -17 -16 -13 -17 -12 -4 4 13 16 21 21 21 13z m76 -21 c-1 -13 -4 -27 -7
-30 -5 -4 -4 41 0 53 4 10 8 -2 7 -23z m-60 -10 c-1 -8 -5 -17 -8 -21 -5 -4
-4 16 1 34 3 9 9 -1 7 -13z m-96 -20 c14 -18 14 -19 -2 -7 -10 8 -23 10 -30 6
-9 -6 -9 -3 1 9 8 10 14 16 15 15 1 -2 8 -12 16 -23z m124 -1 c3 -8 2 -12 -4
-9 -6 3 -10 10 -10 16 0 14 7 11 14 -7z m-69 -16 c5 4 5 1 1 -6 -6 -10 -11
-10 -22 -1 -8 6 -14 14 -14 16 0 3 6 0 13 -6 8 -6 18 -7 22 -3z m-94 -11 c-6
-8 -9 -16 -6 -19 3 -2 -2 -5 -10 -5 -13 0 -13 3 2 19 19 21 31 25 14 5z m149
8 c0 -2 -6 -8 -13 -14 -10 -8 -14 -7 -14 2 0 8 6 14 14 14 7 0 13 -1 13 -2z
m-110 -19 c0 -2 -7 -7 -16 -10 -8 -3 -12 -2 -9 4 6 10 25 14 25 6z m31 -13
c13 -16 12 -17 -3 -4 -17 13 -22 21 -14 21 2 0 10 -8 17 -17z m-700 -106 c-10
-9 -11 -8 -5 6 3 10 9 15 12 12 3 -3 0 -11 -7 -18z m-51 -9 c0 -4 -4 -8 -9 -8
-6 0 -12 4 -15 8 -3 5 1 9 9 9 8 0 15 -4 15 -9z m80 -20 c0 -4 -4 -8 -9 -8 -6
0 -12 4 -15 8 -3 5 1 9 9 9 8 0 15 -4 15 -9z m124 -20 c-3 -4 -9 -8 -15 -8 -5
0 -9 4 -9 8 0 5 7 9 15 9 8 0 12 -4 9 -9z m173 -13 c0 -8 -4 -12 -9 -9 -5 3
-6 10 -3 15 9 13 12 11 12 -6z m60 0 c0 -8 -4 -15 -9 -15 -10 0 -11 14 -1 23
9 10 10 9 10 -8z m-131 -7 c3 -4 -1 -5 -10 -4 -8 1 -18 5 -22 8 -3 4 1 5 10 4
8 -1 18 -5 22 -8z m-70 -24 c1 -9 0 -13 -4 -10 -3 4 -7 14 -8 22 -1 9 0 13 4
10 3 -4 7 -14 8 -22z m-186 10 c0 -8 -19 -13 -24 -6 -3 5 1 9 9 9 8 0 15 -2
15 -3z m34 -2 c3 -5 -1 -9 -9 -9 -8 0 -12 4 -9 9 3 4 7 8 9 8 2 0 6 -4 9 -8z
m73 -7 c0 -8 -4 -12 -9 -9 -5 3 -6 10 -3 15 9 13 12 11 12 -6z m439 -21 c0
-13 -2 -22 -5 -19 -3 3 -6 17 -7 31 0 13 2 22 5 19 3 -3 6 -17 7 -31z m-217
13 c8 -10 7 -14 -2 -14 -8 0 -14 6 -14 14 0 7 1 13 2 13 2 0 8 -6 14 -13z m56
4 c3 -5 2 -12 -3 -15 -5 -3 -9 1 -9 9 0 17 3 19 12 6z m116 -18 c17 -20 18
-23 3 -10 -11 9 -23 15 -26 12 -2 -3 -5 2 -5 10 0 19 -1 20 28 -12z m-337 6
c3 -3 -5 -5 -19 -5 -13 0 -22 3 -19 7 4 8 30 6 38 -2z m86 2 c0 -6 -4 -12 -8
-15 -5 -3 -9 1 -9 9 0 8 4 15 9 15 4 0 8 -4 8 -9z m355 -1 c3 -5 1 -10 -4 -10
-6 0 -11 5 -11 10 0 6 2 10 4 10 3 0 8 -4 11 -10z m-178 -13 c0 -8 -6 -14 -14
-14 -9 0 -10 4 -2 14 6 7 12 13 14 13 1 0 2 -6 2 -13z m238 4 c3 -5 2 -12 -3
-15 -5 -3 -9 1 -9 9 0 17 3 19 12 6z m-630 -11 c-3 -5 -12 -10 -18 -10 -7 0
-6 4 3 10 19 12 23 12 15 0z m675 6 c0 -2 -7 -7 -16 -10 -8 -3 -12 -2 -9 4 6
10 25 14 25 6z m-640 -27 c0 -5 -4 -9 -8 -9 -5 0 -9 7 -9 15 0 8 4 12 9 9 4
-3 8 -9 8 -15z m33 -7 c15 -16 15 -19 2 -19 -8 0 -13 3 -10 5 3 3 0 11 -6 19
-17 20 -5 16 14 -5z m76 4 c8 -10 9 -16 1 -21 -6 -4 -9 -1 -8 7 2 7 -4 13 -12
13 -8 0 -14 -6 -12 -13 1 -8 -2 -11 -8 -7 -11 7 5 35 20 35 4 0 13 -6 19 -14z
m156 5 c-9 -8 -36 -10 -30 -2 2 4 11 8 20 8 8 0 13 -3 10 -6z m160 0 c-9 -8
-36 -10 -30 -2 2 4 11 8 20 8 8 0 13 -3 10 -6z m92 -18 c-4 -3 -2 -11 3 -18 7
-8 5 -12 -4 -12 -8 0 -12 7 -11 16 5 22 4 21 12 21 3 0 3 -3 0 -7z m-520 -18
c0 -8 -4 -12 -9 -9 -5 3 -6 10 -3 15 9 13 12 11 12 -6z m200 0 c0 -8 -4 -15
-9 -15 -10 0 -11 14 -1 23 9 10 10 9 10 -8z m-33 -4 c-8 -8 -34 -10 -38 -2 -3
4 6 7 19 7 14 0 22 -2 19 -5z m-29 -30 c3 -5 2 -12 -3 -15 -5 -3 -9 1 -9 9 0
17 3 19 12 6z m402 -6 c0 -8 -4 -15 -9 -15 -10 0 -11 14 -1 23 9 10 10 9 10
-8z m-457 -5 c0 -5 -5 -10 -11 -10 -5 0 -7 5 -4 10 3 6 8 10 11 10 2 0 4 -4 4
-10z m560 2 c0 -5 -7 -9 -15 -9 -8 0 -12 4 -9 9 3 4 9 8 15 8 5 0 9 -4 9 -8z
m-600 -21 c0 -6 -4 -12 -8 -15 -5 -3 -9 1 -9 9 0 8 4 15 9 15 4 0 8 -4 8 -9z
m36 -25 c0 -14 -3 -23 -7 -20 -6 3 -6 22 0 42 3 10 7 -2 7 -22z m61 9 c0 -8
-4 -15 -9 -15 -10 0 -11 14 -1 23 9 10 10 9 10 -8z m374 -18 c-10 -9 -11 -8
-5 6 3 10 9 15 12 12 3 -3 0 -11 -7 -18z m-316 4 c3 -5 2 -12 -3 -15 -5 -3 -9
1 -9 9 0 17 3 19 12 6z m-75 -27 c0 -8 -19 -13 -24 -6 -3 5 1 9 9 9 8 0 15 -2
15 -3z m235 -4 c3 -5 1 -10 -4 -10 -6 0 -11 5 -11 10 0 6 2 10 4 10 3 0 8 -4
11 -10z m182 -5 c0 -8 -4 -12 -9 -9 -4 3 -8 9 -8 15 0 5 4 9 8 9 5 0 9 -7 9
-15z m-258 -8 c8 -10 7 -14 -2 -14 -8 0 -14 6 -14 14 0 7 1 13 2 13 2 0 8 -6
14 -13z m158 0 c0 -8 -6 -14 -14 -14 -9 0 -10 4 -2 14 6 7 12 13 14 13 1 0 2
-6 2 -13z m-281 -33 c1 -9 -1 -13 -4 -9 -4 4 -7 10 -7 13 0 4 -4 14 -9 22 -7
12 -6 13 4 3 8 -7 15 -20 16 -29z m-56 7 c0 -6 -4 -12 -8 -15 -5 -3 -9 1 -9 9
0 8 4 15 9 15 4 0 8 -4 8 -9z m473 -86 c9 -20 17 -37 17 -38 0 -1 -119 -2
-265 -3 -146 0 -265 3 -265 7 0 3 3 21 6 38 l7 31 241 0 242 0 17 -35z"/>
<path d="M2147 3938 c1 -1063 4 -1932 8 -1932 8 2 123 112 516 495 l276 269
-3 302 c-3 362 -15 1605 -17 1804 l-2 140 -65 73 c-36 41 -83 93 -105 116 -22
23 -69 75 -105 115 -36 41 -72 81 -80 89 -9 9 -56 61 -105 116 -50 55 -99 109
-110 120 -11 12 -47 52 -80 90 -53 60 -124 135 -128 135 -1 0 -1 -870 0 -1932z"/>
<path d="M3024 3890 c0 -550 4 -1000 7 -1000 4 0 16 11 27 25 11 14 67 76 125
138 58 61 119 128 137 147 82 89 138 150 189 203 l56 58 1 412 c1 227 -2 414
-5 417 -5 4 -89 100 -161 184 -14 16 -34 39 -45 51 -11 13 -42 49 -70 81 -27
31 -54 62 -60 68 -25 28 -94 107 -139 159 -27 31 -52 57 -56 57 -3 0 -6 -450
-6 -1000z m62 628 c3 -4 -1 -5 -10 -4 -8 1 -18 5 -22 8 -3 4 1 5 10 4 8 -1 18
-5 22 -8z m64 6 c0 -8 -19 -13 -24 -6 -3 5 1 9 9 9 8 0 15 -2 15 -3z m100 -64
c0 -5 -5 -10 -11 -10 -5 0 -7 5 -4 10 3 6 8 10 11 10 2 0 4 -4 4 -10z m-66
-21 c3 -3 -5 -5 -19 -5 -13 0 -22 3 -19 7 4 8 30 6 38 -2z m-36 -44 c-3 -3 -9
2 -12 12 -6 14 -5 15 5 6 7 -7 10 -15 7 -18z m102 5 c0 -5 -5 -10 -11 -10 -5
0 -7 5 -4 10 3 6 8 10 11 10 2 0 4 -4 4 -10z m36 -6 c-1 -8 -6 -17 -12 -21 -5
-4 -6 -4 -2 1 4 5 3 14 -2 21 -7 8 -5 12 4 12 8 0 13 -6 12 -13z m-85 -27
c-10 -9 -11 -8 -5 6 3 10 9 15 12 12 3 -3 0 -11 -7 -18z m133 15 c2 -4 -4 -8
-14 -8 -10 0 -16 4 -14 8 3 4 9 8 14 8 5 0 11 -4 14 -8z m-187 -17 c0 -8 -4
-15 -9 -15 -10 0 -11 14 -1 23 9 10 10 9 10 -8z m100 0 c0 -8 -4 -12 -9 -9 -5
3 -6 10 -3 15 9 13 12 11 12 -6z m-33 -23 c3 -5 -1 -9 -9 -9 -8 0 -12 4 -9 9
3 4 7 8 9 8 2 0 6 -4 9 -8z m116 -4 c0 -4 -4 -8 -9 -8 -6 0 -12 4 -15 8 -3 5
1 9 9 9 8 0 15 -4 15 -9z m-43 -33 c0 -8 -4 -12 -9 -9 -5 3 -6 10 -3 15 9 13
12 11 12 -6z m78 -4 c3 -5 2 -12 -3 -15 -5 -3 -9 1 -9 9 0 17 3 19 12 6z
m-200 -20 c3 -5 2 -12 -3 -15 -5 -3 -9 1 -9 9 0 17 3 19 12 6z m62 -6 c0 -8
-4 -12 -9 -9 -4 3 -8 9 -8 15 0 5 4 9 8 9 5 0 9 -7 9 -15z m107 4 c3 -3 -5 -5
-19 -5 -13 0 -22 3 -19 7 4 8 30 6 38 -2z m-164 -41 c0 -6 -3 -8 -7 -5 -3 4
-13 1 -22 -6 -14 -11 -14 -10 -2 6 15 20 31 22 31 5z m125 2 c-3 -5 -12 -10
-18 -10 -7 0 -6 4 3 10 19 12 23 12 15 0z m-195 -14 c0 -2 -8 -10 -17 -17 -16
-13 -17 -12 -4 4 13 16 21 21 21 13z m154 -4 c2 -4 -4 -8 -14 -8 -10 0 -16 4
-14 8 3 4 9 8 14 8 5 0 11 -4 14 -8z m80 0 c3 -5 -1 -9 -9 -9 -8 0 -15 4 -15
9 0 4 4 8 9 8 6 0 12 -4 15 -8z m-164 -17 c0 -7 -30 -13 -34 -7 -3 4 4 9 15 9
10 1 19 0 19 -2z m-65 -38 c4 5 5 2 1 -5 -7 -11 -11 -10 -25 2 -10 9 -21 13
-26 9 -4 -5 -5 -2 -1 5 7 11 11 10 25 -2 10 -9 21 -13 26 -9z m261 -3 c1 -9 0
-13 -3 -10 -4 3 -13 0 -22 -6 -12 -10 -12 -7 2 8 9 11 15 24 12 27 -3 4 -2 5
2 2 4 -3 8 -13 9 -21z m39 6 c10 -11 16 -20 13 -20 -3 0 -13 9 -23 20 -10 11
-16 20 -13 20 3 0 13 -9 23 -20z m-257 -15 c-3 -3 -9 2 -12 12 -6 14 -5 15 5
6 7 -7 10 -15 7 -18z m73 -2 c13 -16 12 -17 -3 -4 -17 13 -22 21 -14 21 2 0
10 -8 17 -17z m69 -15 c0 -4 -4 -8 -9 -8 -6 0 -12 4 -15 8 -3 5 1 9 9 9 8 0
15 -4 15 -9z m-152 -7 c16 12 16 12 0 -6 -18 -19 -18 -19 -35 0 -17 18 -17 18
0 6 14 -11 20 -11 35 0z m248 -11 c0 -12 -4 -16 -9 -11 -5 5 -6 14 -3 20 10
15 12 14 12 -9z m-316 0 c0 -5 -5 -10 -11 -10 -5 0 -7 5 -4 10 3 6 8 10 11 10
2 0 4 -4 4 -10z m177 -8 c0 -10 -6 -19 -13 -19 -9 0 -9 5 -1 19 7 10 13 18 14
18 1 0 1 -8 0 -18z m83 -7 c14 -19 14 -19 -2 -6 -10 7 -18 18 -18 24 0 6 1 8
3 6 1 -2 9 -13 17 -24z m38 -30 c-3 -3 -9 2 -12 12 -6 14 -5 15 5 6 7 -7 10
-15 7 -18z m-294 3 c-3 -4 -9 -8 -15 -8 -5 0 -9 4 -9 8 0 5 7 9 15 9 8 0 12
-4 9 -9z m95 -42 c-3 -3 -11 5 -18 17 -13 21 -12 21 5 5 10 -10 16 -20 13 -22z
m158 11 c1 -11 1 -18 0 -16 -2 2 -8 11 -15 20 -9 12 -9 16 1 16 7 0 14 -9 14
-20z m-123 -33 c3 -8 2 -12 -4 -9 -6 3 -10 10 -10 16 0 14 7 11 14 -7z m71
-13 c-9 -8 -36 -10 -30 -2 2 4 11 8 20 8 8 0 13 -3 10 -6z m-181 -19 c2 -4 -4
-8 -14 -8 -10 0 -16 4 -14 8 3 4 9 8 14 8 5 0 11 -4 14 -8z m173 -15 c0 -7 -9
-14 -20 -14 -19 -2 -19 -2 -1 12 11 8 19 15 20 15 0 0 1 -6 1 -13z m-98 0 c-2
-2 -11 -8 -20 -15 -12 -9 -16 -9 -16 1 0 7 9 14 20 14 11 1 18 1 16 0z m160 0
c-2 -2 -11 -8 -20 -15 -12 -9 -16 -9 -16 1 0 7 9 14 20 14 11 1 18 1 16 0z
m37 -33 c-1 -8 -6 -17 -12 -21 -5 -4 -6 -4 -2 1 4 5 3 14 -2 21 -7 8 -5 12 4
12 8 0 13 -6 12 -13z m-224 -15 c2 -2 1 -3 -1 -1 -2 1 -14 -6 -25 -15 -15 -14
-18 -14 -8 -2 6 9 9 18 6 22 -3 3 1 4 10 3 8 -1 17 -4 18 -7z m-57 -8 c3 -5 2
-12 -3 -15 -5 -3 -9 1 -9 9 0 17 3 19 12 6z m61 -31 c0 -12 -4 -16 -9 -11 -5
5 -6 14 -3 20 10 15 12 14 12 -9z m102 -11 c9 -12 9 -16 -1 -16 -7 0 -14 9
-14 20 -1 11 -1 18 0 16 2 -2 8 -11 15 -20z m161 18 c-2 -2 -11 -8 -20 -15
-12 -9 -16 -9 -16 1 0 7 9 14 20 14 11 1 18 1 16 0z m-339 -27 c0 -5 -5 -10
-11 -10 -5 0 -7 5 -4 10 3 6 8 10 11 10 2 0 4 -4 4 -10z m217 -5 c0 -8 -4 -12
-9 -9 -5 3 -6 10 -3 15 9 13 12 11 12 -6z m-180 -10 c0 -8 -4 -15 -9 -15 -10
0 -11 14 -1 23 9 10 10 9 10 -8z m88 -4 c-9 -8 -36 -10 -30 -2 2 4 11 8 20 8
8 0 13 -3 10 -6z m52 -34 c1 -11 1 -18 0 -16 -2 2 -8 11 -15 20 -9 12 -9 16 1
16 7 0 14 -9 14 -20z m49 11 c3 -4 -1 -5 -10 -4 -8 1 -18 5 -22 8 -3 4 1 5 10
4 8 -1 18 -5 22 -8z m44 -13 c-7 -8 -17 -15 -23 -15 -6 0 -2 7 9 15 25 19 30
19 14 0z m-255 -4 c-9 -8 -36 -10 -30 -2 2 4 11 8 20 8 8 0 13 -3 10 -6z m56
-8 c13 -16 12 -17 -3 -4 -17 13 -22 21 -14 21 2 0 10 -8 17 -17z m268 14 c-2
-2 -11 -8 -20 -15 -12 -9 -16 -9 -16 1 0 7 9 14 20 14 11 1 18 1 16 0z m-318
-30 c-6 -8 -8 -16 -5 -19 3 -3 1 -9 -4 -12 -6 -3 -9 0 -8 6 2 16 15 38 23 38
3 0 0 -6 -6 -13z m139 -1 c0 -2 -8 -10 -17 -17 -16 -13 -17 -12 -4 4 13 16 21
21 21 13z m-89 -29 c-10 -9 -11 -8 -5 6 3 10 9 15 12 12 3 -3 0 -11 -7 -18z
m159 13 c-8 -5 -19 -10 -25 -10 -5 0 -3 5 5 10 8 5 20 10 25 10 6 0 3 -5 -5
-10z m84 -6 c3 -8 2 -12 -4 -9 -6 3 -10 10 -10 16 0 14 7 11 14 -7z m-284 -29
c-7 -8 -17 -15 -23 -15 -6 0 -2 7 9 15 25 19 30 19 14 0z m275 -5 c-3 -5 -12
-10 -18 -10 -7 0 -6 4 3 10 19 12 23 12 15 0z m35 -4 c0 -2 -8 -10 -17 -17
-16 -13 -17 -12 -4 4 13 16 21 21 21 13z m-264 -42 c1 -9 0 -13 -4 -10 -3 4
-7 14 -8 22 -1 9 0 13 4 10 3 -4 7 -14 8 -22z m221 11 c0 -8 -3 -13 -5 -10 -3
3 -12 -1 -21 -7 -10 -8 -9 -4 3 10 23 26 23 26 23 7z m-146 -12 c13 -16 12
-17 -3 -4 -17 13 -22 21 -14 21 2 0 10 -8 17 -17z m193 9 c3 -5 -1 -9 -9 -9
-8 0 -12 4 -9 9 3 4 7 8 9 8 2 0 6 -4 9 -8z m-120 -24 c-3 -4 -9 -8 -15 -8 -5
0 -9 4 -9 8 0 5 7 9 15 9 8 0 12 -4 9 -9z m-184 -19 c0 -5 -4 -9 -8 -9 -5 0
-9 7 -9 15 0 8 4 12 9 9 4 -3 8 -9 8 -15z m126 -17 c-17 -16 -18 -16 -5 5 7
12 15 20 18 17 3 -2 -3 -12 -13 -22z m92 7 c9 -12 9 -16 -1 -16 -7 0 -14 9
-14 20 -1 11 -1 18 0 16 2 -2 8 -11 15 -20z m52 -5 c0 -8 -19 -13 -24 -6 -3 5
1 9 9 9 8 0 15 -2 15 -3z m-258 -16 c-14 -14 -44 -20 -36 -7 3 5 9 7 14 4 5
-3 11 -1 15 5 3 5 9 10 13 10 3 0 1 -5 -6 -12z m-41 -35 c12 -16 12 -17 -2 -6
-9 7 -20 9 -24 5 -5 -4 -5 -1 -1 6 9 16 11 15 27 -5z m246 -6 c1 -11 1 -18 0
-16 -2 2 -8 11 -15 20 -9 12 -9 16 1 16 7 0 14 -9 14 -20z m-226 -20 c-10 -9
-11 -8 -5 6 3 10 9 15 12 12 3 -3 0 -11 -7 -18z m126 8 c0 -8 -4 -12 -9 -9 -4
3 -8 9 -8 15 0 5 4 9 8 9 5 0 9 -7 9 -15z m138 -15 c3 -5 1 -10 -4 -10 -6 0
-11 5 -11 10 0 6 2 10 4 10 3 0 8 -4 11 -10z m-39 -25 c1 -8 -1 -17 -5 -19 -4
-3 -7 6 -7 19 0 25 8 25 12 0z m-102 7 c2 -4 -5 -9 -17 -9 -17 -2 -19 0 -7 7
18 12 18 12 24 2z m-154 -22 c0 -5 -2 -10 -4 -10 -3 0 -8 5 -11 10 -3 6 -1 10
4 10 6 0 11 -4 11 -10z m15 -68 c-3 -3 -11 0 -18 7 -9 10 -8 11 6 5 10 -3 15
-9 12 -12z m265 12 c0 -8 -19 -13 -24 -6 -3 5 1 9 9 9 8 0 15 -2 15 -3z m-183
-19 c0 -8 -4 -12 -9 -9 -5 3 -6 10 -3 15 9 13 12 11 12 -6z m-33 -3 c3 -5 -1
-9 -9 -9 -8 0 -15 4 -15 9 0 4 4 8 9 8 6 0 12 -4 15 -8z m-54 -58 c0 -8 -19
-13 -24 -6 -3 5 1 9 9 9 8 0 15 -2 15 -3z m106 -6 c3 -4 -1 -5 -10 -4 -8 1
-18 5 -22 8 -3 4 1 5 10 4 8 -1 18 -5 22 -8z m59 -7 c3 -5 2 -12 -3 -15 -5 -3
-9 1 -9 9 0 17 3 19 12 6z m-137 -116 c-3 -3 -9 2 -12 12 -6 14 -5 15 5 6 7
-7 10 -15 7 -18z"/>
<path d="M4210 2940 c0 -5 1 -11 2 -12 1 -2 -4 -13 -11 -25 -8 -15 -9 -29 -2
-40 5 -10 12 -35 15 -56 5 -32 2 -42 -24 -69 -17 -17 -30 -33 -30 -35 0 -2 10
-25 23 -51 13 -26 23 -54 22 -62 -1 -8 -3 -20 -3 -27 -1 -6 -17 -13 -34 -15
-32 -3 -32 -3 -6 -9 34 -8 46 0 57 38 7 24 4 40 -15 76 l-23 47 27 25 c22 20
26 32 24 70 -1 25 -6 54 -11 64 -6 10 -8 35 -4 55 3 20 3 36 -1 36 -3 0 -6 -4
-6 -10z"/>
<path d="M3838 2563 c-37 -42 -70 -131 -85 -225 -8 -48 -7 -213 1 -234 6 -16
90 26 135 68 41 39 66 159 42 203 -3 6 -10 32 -16 59 -11 52 -39 82 -54 58 -4
-7 -6 -24 -3 -38 2 -13 0 -24 -6 -24 -6 0 -17 -3 -26 -6 -25 -10 -20 29 14 96
30 59 29 78 -2 43z m22 -187 c0 -3 -4 -8 -10 -11 -5 -3 -10 -1 -10 4 0 6 5 11
10 11 6 0 10 -2 10 -4z m50 -30 c0 -12 -33 -79 -48 -97 -22 -26 -52 -43 -52
-29 0 5 6 10 14 10 18 0 46 44 46 73 0 23 16 47 32 47 4 0 8 -2 8 -4z"/>
<path d="M5000 1290 c-120 -23 -199 -107 -223 -236 -31 -159 35 -310 158 -365
71 -32 183 -32 245 1 56 29 111 86 141 148 33 67 33 215 0 283 -62 130 -187
195 -321 169z m120 -55 c6 -3 20 -25 32 -48 19 -38 22 -58 22 -208 0 -200 -13
-250 -70 -269 -70 -23 -122 11 -145 94 -17 63 -19 312 -3 367 14 46 40 72 79
81 20 4 65 -5 85 -17z"/>
<path d="M4070 1278 c-99 -27 -160 -114 -145 -206 14 -89 65 -128 213 -162
154 -36 196 -62 194 -121 -1 -37 -14 -54 -51 -67 -32 -11 -66 3 -163 69 -75
51 -106 60 -152 44 -46 -16 -45 -15 -61 -62 -11 -32 -11 -42 1 -65 17 -32 21
-34 45 -12 17 16 58 20 94 10 132 -38 159 -43 209 -34 62 11 120 49 154 101
51 76 33 196 -36 245 -24 18 -192 72 -222 72 -5 0 -30 9 -54 20 -69 33 -79 82
-23 119 23 15 37 17 75 10 50 -10 72 -29 72 -66 0 -30 34 -46 82 -40 49 7 75
29 100 86 23 51 16 61 -40 51 -20 -3 -59 -2 -87 2 -82 14 -168 16 -205 6z"/>
<path d="M2003 1255 c18 -32 18 -490 1 -534 -8 -19 -12 -36 -10 -39 3 -2 49
-5 103 -5 91 0 98 1 94 19 -2 10 -6 130 -8 265 -3 197 -1 254 10 281 l14 33
-108 0 c-105 0 -107 0 -96 -20z"/>
<path d="M2270 1273 c0 -1 5 -14 10 -28 15 -40 16 -515 1 -543 -14 -26 -33
-24 205 -24 141 0 177 3 207 17 79 37 93 111 41 213 -36 72 -40 92 -23 109 18
18 1 33 -36 33 -45 0 -94 -43 -100 -88 -2 -17 6 -61 17 -96 23 -73 19 -108
-15 -131 -29 -19 -114 -27 -120 -11 -6 20 0 510 7 531 7 20 3 21 -93 20 -56 0
-101 -1 -101 -2z"/>
<path d="M2811 1272 c-6 -2 -5 -16 2 -35 12 -36 15 -471 3 -527 l-7 -35 168 1
c195 1 242 8 277 37 54 48 56 121 5 213 -33 57 -36 76 -14 94 22 19 8 30 -36
30 -31 0 -47 -7 -70 -29 -16 -16 -29 -37 -30 -45 -1 -9 -2 -24 -2 -34 -1 -10
7 -45 17 -79 21 -69 16 -106 -17 -127 -28 -19 -114 -28 -120 -12 -9 28 0 512
10 531 11 19 8 20 -83 20 -52 0 -98 -1 -103 -3z"/>
<path d="M3344 1268 c-3 -4 -1 -16 5 -26 5 -10 10 -78 11 -152 0 -74 1 -169 2
-210 0 -90 15 -129 59 -162 52 -37 101 -49 191 -47 114 3 172 31 204 97 15 31
18 69 19 244 1 173 4 210 18 231 19 30 11 35 -48 31 -22 -1 -41 -3 -43 -3 -1
-1 5 -17 13 -37 18 -44 21 -375 4 -437 -13 -48 -58 -78 -114 -75 -69 3 -99 19
-124 67 -17 31 -18 403 -2 445 7 16 9 31 6 34 -9 9 -196 9 -201 0z"/>
<path d="M4495 1272 c-2 -2 1 -16 7 -31 16 -40 15 -481 -2 -521 -9 -22 -10
-34 -3 -38 9 -5 156 -7 195 -3 3 1 1 20 -6 44 -16 58 -14 493 3 525 6 12 10
23 9 23 -8 3 -200 4 -203 1z"/>
<path d="M5415 1272 c-2 -2 3 -18 10 -35 17 -42 14 -488 -3 -529 l-12 -28 50
0 c52 0 58 6 38 43 -15 28 -20 375 -5 384 6 3 7 1 3 -5 -4 -7 -2 -12 3 -12 6
0 11 -7 11 -15 0 -8 53 -69 118 -137 84 -89 126 -142 151 -191 32 -63 36 -67
67 -67 30 0 34 3 35 28 0 15 0 132 -1 260 0 189 3 238 15 262 22 42 20 46 -30
45 -54 -1 -60 -6 -44 -37 13 -23 21 -268 9 -268 -3 0 -13 12 -22 28 -9 15 -52
63 -97 106 -44 44 -91 100 -104 125 l-23 45 -83 1 c-45 0 -84 -1 -86 -3z"/>
</g>
</svg>
